<?xml version="1.0"?><svg width="1000" height="480" xmlns="http://www.w3.org/2000/svg">
 <title>London Skyline</title>

 <g>
  <title>Layer 1</title>
  <g id="layer11" display="inline">
   <g id="g3228" display="inline"/>
   <g id="g3909">
    <path d="m376.04657,247.138092l-0.043823,-14.125595c0,0 1.20813,-0.161087 1.852417,-0.912796c0,-0.107391 0,-37.424316 0,-37.424316l-12.782654,-0.000793c0,0 0,37.316925 0,37.424286c0.644287,0.751709 1.852417,0.912811 1.852417,0.912811l0,13.933441c2.112915,1.832901 7.006836,1.384186 9.121643,0.192963z" id="path3094" stroke-width="0.129585px" stroke="#000000" fill-rule="evenodd" fill="#000000"/>
    <path d="m368.933411,194.700043l-0.040283,-19.62471l5.087585,0l0.013367,19.620117l-5.06073,0.004593l0.000061,0z" id="path3096" stroke-width="0.129585px" stroke="#000000" fill-rule="evenodd" fill="#000000"/>
    <path d="m365.609009,191.306213l0,1.385803l11.731812,0l0,-1.404785l-11.731812,0.018982z" id="path3098" stroke-width="0.129585px" stroke="#000000" fill-rule="evenodd" fill="#000000"/>
    <path d="m365.665955,187.357635l0,1.385803l11.731812,0l0,-1.40477l-11.731812,0.018967z" id="path3100" stroke-width="0.129585px" stroke="#000000" fill-rule="evenodd" fill="#000000"/>
    <path d="m365.590027,183.409073l0,1.385818l11.731812,0l0,-1.404785l-11.731812,0.018967z" id="path3102" stroke-width="0.129585px" stroke="#000000" fill-rule="evenodd" fill="#000000"/>
    <path d="m365.703918,179.441544l0,1.385788l3.315002,0l8.416809,0l0,-1.404785l-11.731812,0.018997z" id="path3104" stroke-width="0.129585px" stroke="#000000" fill-rule="evenodd" fill="#000000"/>
    <path d="m365.609009,175.417023l0,1.385803l11.731812,0l0,-1.404785l-11.731812,0.018982z" id="path3106" stroke-width="0.129585px" stroke="#000000" fill-rule="evenodd" fill="#000000"/>
    <path d="m374.075806,175.052979c0,0 3.18927,-0.113892 3.796753,-0.531525c-0.019043,-0.987152 -0.019043,-1.006134 -0.019043,-1.006134c0,0 -0.189819,-0.18985 -0.759338,-0.28476c-0.056885,0.018967 -0.037964,-0.24678 -0.037964,-0.24678l0.531494,0l0.246826,-0.24678l0,-4.024506l0.341675,0c0,0 0.212524,-0.116165 0.286316,-0.310791c0,-0.221497 0,-5.228394 0,-5.228394c0,0 -0.28186,-0.328888 -0.651001,-0.442993c0.020081,-0.020126 0,-3.563904 0,-3.563904c-0.404236,-0.662689 -2.227722,-0.903564 -3.449829,-1.067154l0.007019,-0.275162c0,0 1.060425,-0.073853 1.248352,-0.302032c0.020142,0 0.389282,-0.328873 0.409424,-0.46312c0.013428,-0.02684 0,-2.449753 0,-2.449753c-0.142334,-0.24678 -1.235596,-0.678085 -2.234985,-0.744995l-4.65155,0.003387c-0.999329,0.06694 -2.09259,0.49823 -2.234985,0.74501c0,0 -0.013367,2.422913 0,2.449753c0.020142,0.134247 0.389282,0.463104 0.409424,0.463104c0.187927,0.22821 1.248413,0.302032 1.248413,0.302032l0.006958,0.275177c-1.222046,0.163589 -3.045532,0.404465 -3.449768,1.067169c0,0 -0.020142,3.543747 0,3.563904c-0.369141,0.11409 -0.651062,0.442963 -0.651062,0.442963c0,0 0,5.006897 0,5.228409c0.073792,0.194626 0.286377,0.310776 0.286377,0.310776l0.341675,0l0,4.024506l0.246765,0.246796l0.531555,0c0,0 0.018982,0.265778 -0.037964,0.24678c-0.569519,0.094925 -0.759399,0.284744 -0.759399,0.284744c0,0 0,0.018982 -0.018982,1.006134c0.607483,0.417648 3.796692,0.53154 3.796692,0.53154l5.220642,-0.003403l-0.000488,0z" id="path3108" stroke-width="0.129585px" stroke="#000000" fill-rule="evenodd" fill="#000000"/>
    <path d="m365.971802,191.278442l0,-0.268463l-0.697998,0l-0.120789,0.40271l-0.80542,0.013428l-0.161072,-0.751724l0,-0.778549l0.147644,-0.510086l0.818848,-0.02684l0.201355,0.268463l0,1.140976l0.912781,0.026871l0.013428,0.442963l-0.308777,0.040253z" id="path3110" stroke-width="0.129585px" stroke="#000000" fill-rule="evenodd" fill="#000000"/>
    <path d="m365.739807,187.289673l0,-0.268463l-0.697998,0l-0.120789,0.402679l-0.80542,0.013428l-0.161072,-0.751709l0,-0.778534l0.147644,-0.510117l0.818848,-0.02684l0.201355,0.268463l0,1.140991l0.912781,0.026855l0.013367,0.442963l-0.308716,0.040283z" id="path3112" stroke-width="0.129585px" stroke="#000000" fill-rule="evenodd" fill="#000000"/>
    <path d="m365.904724,183.398941l0,-0.268463l-0.697998,0l-0.12085,0.402695l-0.805359,0.013428l-0.161133,-0.751709l0,-0.778564l0.147705,-0.510086l0.818787,-0.02684l0.201355,0.268463l0,1.140991l0.912781,0.026855l0.013428,0.442963l-0.308716,0.040268z" id="path3114" stroke-width="0.129585px" stroke="#000000" fill-rule="evenodd" fill="#000000"/>
    <path d="m367.087646,179.41626l0,-0.268463l-0.697998,0l-0.120789,0.40271l-0.80542,0.013412l-0.161072,-0.751709l0,-0.778549l0.147644,-0.510101l0.818848,-0.026825l0.201294,0.268448l0,1.140991l0.912842,0.02684l0.013367,0.442978l-0.308716,0.040268z" id="path3116" stroke-width="0.129585px" stroke="#000000" fill-rule="evenodd" fill="#000000"/>
    <path d="m376.549438,185.251373l-0.966492,0c0,0 -1.167847,0.845673 -0.040283,2.013489c0.026794,-0.040283 1.26178,0.053711 1.26178,0.053711c0,0 1.073853,-1.248383 -0.255005,-2.0672z" id="path3118" stroke-width="0.129585px" stroke="#000000" fill-rule="evenodd" fill="#000000"/>
    <path d="m376.618225,189.36142l-0.966492,0c0,0 -1.167847,0.845657 -0.040283,2.013504c0.026794,-0.040298 1.26178,0.053665 1.26178,0.053665c0,0 1.073853,-1.248352 -0.255066,-2.067169l0.000061,0z" id="path3120" stroke-width="0.129585px" stroke="#000000" fill-rule="evenodd" fill="#000000"/>
    <path d="m376.603088,181.495728l-0.777161,0c0,0 -0.939087,0.851013 -0.03241,2.026184c0.021606,-0.040512 1.014648,0.054031 1.014648,0.054031c0,0 0.863525,-1.256226 -0.205078,-2.080215z" id="path3122" stroke-width="0.116567px" stroke="#000000" fill-rule="evenodd" fill="#000000"/>
    <path d="m375.447693,178.170532l-0.695068,0c0,0 -0.839905,0.853531 -0.028992,2.032196c0.019287,-0.040649 0.907471,0.054184 0.907471,0.054184c0,0 0.772278,-1.259949 -0.183472,-2.08638l0.000061,0z" id="path3124" stroke-width="0.110403px" stroke="#000000" fill-rule="evenodd" fill="#000000"/>
    <path d="m367.779175,181.821091l-0.851196,0c0,0 -1.028503,0.848846 -0.035461,2.021042c0.02356,-0.040405 1.111206,0.053894 1.111206,0.053894c0,0 0.94574,-1.253052 -0.224609,-2.074936l0.000061,0z" id="path3126" stroke-width="0.121836px" stroke="#000000" fill-rule="evenodd" fill="#000000"/>
    <path d="m368.055786,185.642853l-0.964478,0c0,0 -1.165466,0.905991 -0.040222,2.157135c0.026794,-0.043152 1.259216,0.05751 1.259216,0.05751c0,0 1.071655,-1.337418 -0.254517,-2.214645z" id="path3128" stroke-width="0.133991px" stroke="#000000" fill-rule="evenodd" fill="#000000"/>
    <path d="m367.864502,189.492645l-0.917053,0c0,0 -1.108093,0.847015 -0.038208,2.016708c0.025513,-0.040344 1.197266,0.053787 1.197266,0.053787c0,0 1.018921,-1.250366 -0.242004,-2.070496z" id="path3130" stroke-width="0.126326px" stroke="#000000" fill-rule="evenodd" fill="#000000"/>
    <path d="m369.630005,143.887207l3.690979,0.049194l-0.119995,1.360397l-3.597961,0l0.026978,-1.409592l0,0l0,0z" id="path3132" stroke-width="0.142933px" stroke="#000000" fill-rule="evenodd" fill="#000000"/>
    <path d="m373.057556,146.714706l-3.070313,0l0.002014,1.365555l3.043945,0l0.024109,-1.365555l0.000244,0z" id="path3134" stroke-width="0.186913px" stroke="#000000" fill-rule="evenodd" fill="#000000"/>
    <path d="m370.182373,149.634796l2.58606,0l0,1.498779l-2.579041,0l-0.007019,-1.498779z" id="path3136" stroke-width="0.201345px" stroke="#000000" fill-rule="evenodd" fill="#000000"/>
    <path d="m370.557068,152.318787l1.863037,0l0,0.828995l-1.875977,0l0.012878,-0.828995l0.000061,0z" id="path3138" stroke-width="0.199956px" stroke="#000000" fill-rule="evenodd" fill="#000000"/>
    <path d="m370.440308,153.937195l-0.882751,-9.985321l3.815735,0.056961l-0.892273,9.937866l-2.04071,-0.009506z" id="path3140" stroke-miterlimit="4" stroke-width="0.323962" stroke="#000000" fill="none"/>
    <path d="m371.560364,143.819l0,-6.853043" id="path3142" stroke-miterlimit="4" stroke-width="0.311004" stroke="#000000" fill="none"/>
   </g>
  </g>
  <g id="layer10" display="inline">
   <path d="m548.588867,244.636566c-0.166382,0.594757 -0.893372,1.430328 -0.956604,1.48053c-5.033264,4.000931 -18.340576,4.67598 -25.574158,-0.495773c-0.285828,-0.204315 -1.568726,-1.822678 -1.568726,-1.86554c-1.30011,-11.123428 -9.132202,-79.20401 12.659973,-105.558411c-0.156494,-0.156586 2.349243,-0.156586 2.349243,-0.156586c22.971069,23.146713 14.20697,106.46582 13.090271,106.595779z" id="path3090" stroke-miterlimit="4" stroke-width="0.163531" stroke="#000000" fill-rule="evenodd" fill="#000000"/>
  </g>
  <g id="layer9" display="inline">
   <path d="m397.834473,246.675507l0,-2.309601l0.256592,-0.256622l-0.012756,-7.50621c0,0 -0.372131,-0.461929 -0.295166,-0.53891c-0.025696,-0.089798 -0.025696,-0.577408 -0.025696,-0.577408l0.372131,0l0,-7.005798l-0.346436,-0.24379l0,-0.218124l0.346436,0.012787l-0.346436,-0.410583l0,-0.384933l-0.455017,-0.26268l0,-0.340393l0.429321,-0.295105l0,-0.449097l0.295166,-0.205292l0,-1.642395l-0.26947,0l-0.148743,-0.257645l0,-0.242767l0.157776,-0.157761l1.351074,0l0,1.20993l0.26947,0l0,0.205292l0.551697,0l0,-0.205292l0.75708,0l0,0.256607l0.436218,0l0,0.243805l0.372131,0l0,0.153976l0.264221,0.070801l0,-0.904846l0.21051,-0.384918l0.179626,-0.179642l1.809204,0l0,0.205307l2.117126,0l0,-0.26947l1.988831,0l0,0.256622l5.183777,0l0,-0.307922l1.963196,0l0,0.307922l5.247925,0l0,-0.346436l1.924683,0l0,0.346436l5.05542,0l0,-0.333603l2.296814,0l0,0.29512l1.834839,0l0,-0.282288l-0.282288,0l0,-0.500412l-0.205322,0l0,-0.423431l0.564575,0l0,-3.239853l-0.37207,0l0,-0.917419l0.166809,0l0,-6.409607l0,-1.295486l-0.449097,-0.449112l0,-0.391327l0.59021,-0.224564l0,-1.007233l-0.162048,-0.043396l0,-0.258102l0.713806,-0.449097l1.052124,-0.314362l1.12915,0l0,-2.925507l-0.430725,-0.331146l0,-0.544388l0.443542,0l0,-0.176926l0.187012,0l-0.035767,-0.133774l-0.14563,0l-0.173523,-0.173553l0,-0.20076l0.491882,-0.284027l0,-0.644669l0.216919,0c0.353638,-2.983002 2.122559,-8.73848 7.427307,-10.611343l0,-0.409058l0.230286,0l0,-0.254059c0,0 -0.411133,0.042709 -0.468567,-0.234802c0,-0.072571 -0.022583,-0.305084 0.243347,-0.412048l0.161743,-0.011658l0,-0.866089l0.134705,0l0,-0.468353l0.1604,0l0,0.423431l0.339966,0l0,-0.744202l-0.185974,0l0,-0.449081l0.359253,0l0,-3.259109l-0.397766,-0.32077l0,-0.256622l0.433167,0l0,-1.022003l0.408325,0.408295l0,0.499008l0.317566,0l0,-1.850876l-0.417358,0l0,-0.32663l0.235901,0l0,-0.998047c0,0 0.535278,-0.843781 0.861877,-0.843781l0,-0.308472l-0.28125,-0.145172l0,-0.145172l0.308472,0l0,-0.784546l0.23761,0c0,0 -0.202087,-0.137939 -0.224548,-0.269455l-0.005981,-0.301529c0,0 0.083374,-0.147568 0.179626,-0.153976c0.109009,-0.007309 0.128296,-0.006393 0.128296,-0.006393l0,-0.16713c-0.925232,-0.453659 -0.198547,-1.319199 -0.005981,-1.229385l0.025269,-1.599564l0.155151,-0.866104l0.15509,0.866104l0.025269,1.599564c0.192505,-0.089813 0.919189,0.775726 -0.005981,1.229385l0,0.16713c0,0 0.019287,-0.00087 0.128296,0.006393c0.096191,0.006393 0.179626,0.153976 0.179626,0.153976l-0.005981,0.301529c-0.022522,0.131516 -0.224548,0.269455 -0.224548,0.269455l0.23761,0l0,0.784546l0.308472,0l0,0.145172l-0.28125,0.145172l0,0.308472c0.326599,0 0.861877,0.843781 0.861877,0.843781l0,0.998047l0.235901,0l0,0.32663l-0.417358,0l0,1.850876l0.317566,0l0,-0.499008l0.408264,-0.408295l0,1.022003l0.433228,0l0,0.256622l-0.397766,0.32077l0,3.259109l0.359253,0l0,0.449081l-0.185974,0l0,0.744202l0.339966,0l0,-0.423431l0.1604,0l0,0.468353l0.134705,0l0,0.866089l0.161743,0.011658c0.265869,0.106964 0.243347,0.339478 0.243347,0.412048c-0.057495,0.277512 -0.468567,0.234802 -0.468567,0.234802l0,0.254059l0.230286,0l0,0.409058c5.304749,1.872864 7.073669,7.628342 7.427307,10.611343l0.216919,0l0,0.644669l0.491882,0.284027l0,0.20076l-0.173523,0.173553l-0.14563,0l-0.035767,0.133774l0.187012,0l0,0.176926l0.443542,0l0,0.544388l-0.430725,0.331146l0,2.925507l1.12915,0l1.052124,0.314362l0.713806,0.449097l0,0.258102l-0.162048,0.043396l0,1.007233l0.59021,0.224564l0,0.391327l-0.449036,0.449112l0,1.295486l0,6.409607l0.166748,0l0,0.917419l-0.37207,0l0,3.239853l0.564575,0l0,0.423431l-0.205322,0l0,0.500412l-0.282288,0l0,0.200958l2.554321,0l0,-0.372772l2.295959,0l0,0.373077l5.089355,0l0,-0.325241l1.970642,0l0,0.36351l5.290222,0l0,-0.353943l2.008972,0l0,0.334808l4.660461,0l0,-0.320618l2.529907,0l0,0.297638l10.119629,0l0,-1.853455l-0.297607,-0.223236l-0.013489,-1.197296l0.304382,-0.135284l0,-0.459991l-0.297668,0l0,-1.542297l0.899719,0l0,-0.608826l0.443054,0.007004l-0.277405,-0.373093l-0.143494,-0.172195l-0.019104,-0.38266l0.321655,0.008011l0,-0.487061l0.14209,0l0,-4.139832l-0.243408,-0.140533l-0.363831,-0.176636l0,-0.589294l0.607239,0l0,-0.899658l0.175842,0l0,-0.629089l0.290894,0l0.150513,0l0,-0.780579l-0.181763,0l0,-0.267838l0.181763,0l0,-0.334824l0.286987,0l0,0.325256l0.162659,0l0,0.277405l-0.162659,0l0,0.449631l0.229614,0l0.267822,-0.430481l0,-1.358429l-0.200867,0l0,-0.443893l0.306091,0l0,-0.455353l0.229614,0l0,-0.315674l-0.220032,0l0,-0.344406l0.200928,0l0,-0.325272l0.153015,0l-0.032959,-0.123199l0.195618,0l-0.017273,-0.587189l0.284119,-0.38559l0,-0.750336l0.517578,-0.841827l0.105225,0c0,0 0.047791,-0.459198 0.277466,-0.497467c0,-0.019135 0.017456,-0.335983 0.017456,-0.335983c-0.202881,-0.027054 -0.29541,-0.395157 -0.011292,-0.516922c0.002014,0.000565 -0.008972,-0.310287 -0.006958,-0.311157c-0.328857,-0.102844 -0.330994,-0.645416 0.120667,-0.660522c0.45166,0.01593 0.449585,0.558502 0.120728,0.661362c0.002014,0.00087 -0.008972,0.311722 -0.006958,0.311157c0.284119,0.121765 0.191589,0.489883 -0.011353,0.516922c0,0 0.017517,0.316864 0.017517,0.335999c0.229614,0.038254 0.277405,0.497437 0.277405,0.497437l0.105286,0l0.517578,0.841858l0,0.750336l0.284119,0.385574l-0.017273,0.587189l0.195618,0l-0.03302,0.123215l0.153076,0l0,0.325256l0.200928,0l0,0.344391l-0.220032,0l0,0.315689l0.229553,0l0,0.455368l0.306152,0l0,0.443878l-0.200928,0l0,1.358429l0.267883,0.430511l0.229614,0l0,-0.449646l-0.162659,0l0,-0.27742l0.162659,0l0,-0.325256l0.286987,0l0,0.334824l0.181763,0l0,0.267853l-0.181763,0l0,0.780579l0.150513,0l0.290894,0l0,0.629059l0.175842,0l0,0.899689l0.607239,0l0,0.589294l-0.363831,0.176636l-0.243408,0.140518l0,4.139847l0.142029,0l0,0.487045l0.321716,-0.007996l-0.019104,0.382645l-0.143494,0.172211l-0.277405,0.373093l0.443054,-0.007004l0,0.60881l0.899658,0l0,1.542282l-0.297607,0l0,0.459991l0.304382,0.135284l-0.013489,1.197311l-0.297668,0.223221l0,1.494598l1.218262,0l0,-0.346024c0,0 -0.220032,-0.19133 -0.200867,-0.334824c0,0.0383 0.005005,-0.588333 0.005005,-0.588333c0,0 0.047791,-0.196106 0.153076,-0.248734c-0.014343,-0.014313 0,-1.286682 0,-1.286682l0.138672,-0.133911c0,0 -0.072266,-0.261566 0.16449,-0.271729c-0.013489,0 0.248657,-0.00798 0.165771,0.311188c0,-0.00502 0.238953,0.137512 0.238953,0.137512l0,0.344391l-0.100464,0l0,0.148285l0.162659,0l-0.005005,1.181442l-0.153076,0l0,1.08577l0,1.868164l0.298096,0.189392l0,1.007904l-0.148804,0l0,0.588531l-0.162354,0l0,5.546844l0.473511,0l0,0.913208l0.317932,0l0,0.61557l-0.155579,0l0,0.277344l-0.473511,0l0,0.906448l0.182617,0l0,0.649384l-0.175842,0l0,0.568222l-0.162354,0l0,7.102692l0.311157,0l0,0.290863l0.169128,0l0,0.169113l0.155579,0l0,2.414917l-108.792419,0.009003l-0.000793,-0.000412z" id="path3293" stroke-miterlimit="4" stroke-width="0.015306" stroke="#000000" fill-rule="evenodd" fill="#000000"/>
  </g>
  <g id="layer8" display="inline">
   <g id="g3281" display="inline">
    <g id="g3293" display="inline" fill="#1a1a1a">
     <path d="m576.092346,209.091675c0.000244,0.356506 -0.341248,0.645645 -0.762512,0.645645c-0.421326,0 -0.762817,-0.289139 -0.762573,-0.645645c-0.000244,-0.356537 0.341248,-0.64566 0.762573,-0.64566c0.421265,0 0.762756,0.289124 0.762512,0.64566z" id="path3295" fill-rule="nonzero" fill="#1a1a1a"/>
     <path d="m575.237732,208.616074l0.048279,-2.047104l0.077087,2.043579l-0.125366,0.003525l0,0z" id="path3297" stroke-miterlimit="4" stroke-width="2.442343" stroke="#1a1a1a" fill-rule="evenodd" fill="#1a1a1a"/>
     <path d="m575.585022,209.537903c-0.085999,0.348099 0.140991,2.484894 0.172974,2.492996c2.621033,0.668106 2.973022,2.975403 2.973022,2.975403l0.710999,0.006088l-0.001038,1.302216l-0.747009,0l-0.040955,9.902405l-6.635986,-0.013l0.013,-9.81601l-0.713013,0l-0.001038,-1.385803l0.677002,-0.006104c0,0 0.166992,-2.448883 2.787048,-2.889694c0.031982,-0.005508 0.348999,-2.166397 0.263977,-2.514389l0.541016,-0.054108l0,0l0,0z" id="path3299" fill-rule="evenodd" fill="#1a1a1a"/>
    </g>
    <g id="g3301" display="inline">
     <path d="m565.242065,205.489471c0.000305,0.356537 -0.341187,0.64566 -0.762512,0.64566c-0.421326,0 -0.762756,-0.289124 -0.762512,-0.64566c-0.000244,-0.356506 0.341187,-0.645645 0.762512,-0.645645c0.421326,0 0.762817,0.289139 0.762512,0.645645z" id="path3303" stroke-dashoffset="0" stroke-miterlimit="4" stroke-width="0.883883" stroke="#000000" fill-rule="nonzero" fill="#000000"/>
     <path d="m564.387451,205.013885l0.04834,-2.047119l0.077026,2.04361l-0.125366,0.00351l0,0z" id="path3305" stroke-miterlimit="4" stroke-width="2.442343" stroke="#000000" fill-rule="evenodd" fill="#000000"/>
     <path d="m564.734558,205.93573c-0.085327,0.348083 0.141479,2.484863 0.173523,2.493027c2.620728,0.668015 2.973022,2.975357 2.973022,2.975357l0.710815,0.006104l-0.000793,1.302216l-0.746887,0l-0.041382,9.901978l-6.636597,-0.012161l0.01355,-9.816391l-0.713135,0l-0.000732,-1.385818l0.677002,-0.006119c0,0 0.167114,-2.448883 2.786621,-2.889709c0.032593,-0.005478 0.34967,-2.166351 0.264343,-2.514435l0.540649,-0.054047l0,0z" id="path3307" stroke-width="0.827632px" stroke="#000000" fill-rule="evenodd" fill="#000000"/>
    </g>
    <path d="m605.528259,205.443054c0.000244,0.356506 -0.341248,0.64566 -0.762573,0.64566c-0.421265,0 -0.762756,-0.289154 -0.762512,-0.64566c-0.000244,-0.356537 0.341248,-0.64566 0.762512,-0.64566c0.421326,0 0.762817,0.289124 0.762573,0.64566z" id="path3310" stroke-dashoffset="0" stroke-miterlimit="4" stroke-width="0.883883" stroke="#000000" fill-rule="nonzero" fill="#000000"/>
    <path d="m604.673584,204.967468l0.04834,-2.047119l0.077087,2.04361l-0.125366,0.003494l-0.000061,0.000015z" id="path3312" stroke-miterlimit="4" stroke-width="0.208844" stroke="#000000" fill-rule="evenodd" fill="#000000"/>
    <g id="g3314" display="inline" fill="#1a1a1a">
     <path d="m595.999084,208.866394c0.000244,0.327469 -0.328491,0.593033 -0.734192,0.593033c-0.40564,0 -0.734436,-0.265564 -0.734192,-0.593033c-0.000244,-0.327484 0.328552,-0.593048 0.734192,-0.593048c0.405701,0 0.734436,0.265564 0.734192,0.593048z" id="path3316" fill-rule="nonzero" fill="#1a1a1a"/>
     <path d="m595.176208,208.429535l0.04657,-1.88028l0.074158,1.877075l-0.120728,0.00322l0,-0.000015z" id="path3318" stroke-miterlimit="4" stroke-width="2.322307" stroke="#1a1a1a" fill-rule="evenodd" fill="#1a1a1a"/>
     <path d="m595.510437,209.276291c-0.082153,0.319717 0.13623,2.282364 0.167053,2.289856c2.523376,0.613586 2.862549,2.73291 2.862549,2.73291l0.684387,0.00563l-0.000732,1.196106l-0.719177,0l-0.039795,9.095093l-6.389954,-0.011154l0.013,-9.016525l-0.686584,0l-0.000732,-1.272888l0.651855,-0.005615c0,0 0.160889,-2.249329 2.683044,-2.654236c0.031372,-0.005035 0.33667,-1.989838 0.254517,-2.30954l0.520569,-0.049637l0,0z" id="path3321" fill-rule="evenodd" fill="#1a1a1a"/>
    </g>
    <path d="m605.03656,205.996201c-0.085449,0.348068 0.141479,2.484848 0.173462,2.493027c2.620789,0.667999 2.973022,2.975342 2.973022,2.975342l0.710876,0.006104l-0.000793,1.302216l-0.746887,0l-0.041443,9.901947l-6.636536,-0.012146l0.013489,-9.816406l-0.713074,0l-0.000732,-1.385803l0.676941,-0.006104c0,0 0.167114,-2.448883 2.786621,-2.889709c0.032593,-0.005493 0.34967,-2.166351 0.264343,-2.51442l0.540649,-0.054047l0.000061,0z" id="path3323" stroke-width="0.070771px" stroke="#000000" fill-rule="evenodd" fill="#000000"/>
    <path d="m614.814087,222.993057c0,0 0.003052,-1.432556 0.001038,-1.428146c-0.187134,-0.130814 -1.230896,-0.210358 -1.230896,-0.210358l0,1.780914l-1.101135,-0.140869l-0.015137,-1.681625c-0.673767,-0.106613 -0.961792,-0.141281 -1.59552,-0.163635l0.011292,1.615219l-1.186462,-0.139191l0,-1.516998c-0.876404,-0.026062 -1.507141,-0.033112 -1.507141,-0.033112l0.021423,1.51123l-1.720764,-0.009506l-1.527222,0l0,-1.604874l-2.373901,0l0.021606,1.623413l-1.505554,-0.006805l0,-1.604889l-2.336548,0.007111l-0.005005,1.622345l-1.515991,-0.007904l0,-1.604874l-2.373901,0l0.010071,1.627335l-1.495667,-0.009995l0,-1.604874l-2.373962,0l0.020386,1.620987l-1.506775,-0.002213l0,-1.604858l-2.373962,0l0.021484,1.62561l-1.505676,-0.004608l0,-1.604889l-2.373962,0l0.010193,1.621017l-1.495483,-0.002213l0,-1.604858l-2.373962,0l0.016479,1.624634l-1.499939,-0.005585l0,-1.604889l-2.373962,0l0.021179,1.623444l-1.505981,-0.006805l0,-1.604858l-2.373962,0l0,1.594879l-1.512024,0l0,-1.554886l-9.042175,0l0.073181,26.488434c-0.079102,0.016693 43.942322,-0.139847 44.021912,-0.140945c0,0 9.023743,-0.127518 9.537842,-1.227509c0.030212,-0.479996 0.015137,-23.217285 0.014099,-23.249863l0.000488,0.000061z" id="path3325" stroke-width="0.06956px" stroke="#000000" fill-rule="evenodd" fill="#000000"/>
    <path d="m558.283936,252.67395l-0.01062,-2.86351c0,0 -0.562073,-0.095398 -0.530273,-0.307556c0.031799,-0.212112 0.350586,-0.058395 0.445435,-0.318161c0.304199,-0.833313 -0.148499,-1.442352 -0.960083,-1.455368c-0.896423,0.003006 -1.296021,0.627914 -0.991821,1.461197c0.094788,0.259811 0.413574,0.106049 0.445435,0.318176c0.031799,0.212112 -0.530273,0.307541 -0.530273,0.307541l-0.02655,2.709763l0,0.159088l2.158752,-0.0112l0,0.000031z" id="path3056" stroke-width="0.239978px" stroke="#000000" fill-rule="evenodd" fill="#000000"/>
   </g>
  </g>
  <g id="layer5" display="inline">
   <g id="g3843" display="inline" fill="#0d0d0d">
    <path d="m957.483643,261.890259c0,0 -26.3797,0.965027 -27.570862,0.148376c-0.140198,0.074219 -2.417297,2.375458 -3.363159,4.416809c0.035095,-0.111298 -1.191101,-0.148529 -1.191101,-0.148529c0,0 0.929321,-2.867767 0.706421,-3.707642c-0.074463,0.105042 -4.508484,-0.971039 -5.821472,-1.12851c0.099121,0.052429 -1.238525,0.20993 -1.734009,4.330414c0.02478,-0.15744 -1.139526,-0.026215 -1.139526,-0.026215c0,0 0,-4.120453 -1.288086,-4.697845c-0.0495,-0.026215 -15.966553,-2.492523 -21.434021,-3.779266c0,0 -3.759155,1.653442 -4.948181,3.228119c-0.594543,-0.262451 -0.594543,-0.262451 -0.594543,-0.262451c0,0 3.146057,-3.674286 3.022156,-4.855331c-0.074341,-0.026215 0.107727,-1.126831 -1.757813,-0.894867c-0.026306,0.018646 -4.492981,3.219833 -5.071106,4.054947l-0.490295,-0.398987c0,0 2.750061,-4.982864 1.66394,-6.133438c-0.034912,-0.037109 -2.59375,-3.398865 -4.179138,-3.110168c0.099121,-0.078796 -6.762817,2.257065 -6.762817,2.257065l-0.049377,-0.433029c0,0 3.158386,-2.007736 3.059265,-2.138962c0,0 -3.383362,0.789871 -3.40094,1.086792c-0.052612,-0.259796 -0.070007,-0.334061 -0.070007,-0.334061l5.552673,-4.992096c0.525452,-0.519623 7.627869,-5.872055 18.029724,-10.988403c1.027588,-0.505417 14.644348,-8.652985 40.98877,-8.760162c-0.148682,0 29.439453,-1.741592 54.873413,19.785675c0,0 1.996826,2.301193 3.643311,3.785873c0.070068,0.222656 -0.245178,0.111282 -0.245178,0.111282c0,0 -4.484192,-2.338303 -5.289917,-0.74231c-0.035095,0 -1.051025,2.523911 -0.105042,4.453903c0.945862,1.930038 2.837646,4.750854 2.837646,4.750854l-0.245239,0.148407c0,0 -4.028748,-4.75087 -5.920532,-4.194107c0.17511,0.074188 -2.031982,0.334045 2.977722,5.567398c0.035095,0 -0.315186,0.334045 -0.315186,0.334045c0,0 -4.519226,-3.822952 -6.270996,-3.563141c-1.471313,0.371155 -15.659729,4.41684 -15.659729,4.41684c0,0 -1.226074,2.85791 -0.490417,4.899261c-0.140076,0.037109 -0.735657,0.259857 -0.735657,0.259857c0,0 -1.85675,-4.157043 -2.487305,-4.157043c-1.366272,0.14856 -5.289917,1.187744 -5.289917,1.187744c0,0 0.665588,3.006409 1.261108,3.785828c-0.84082,0.037079 -0.84082,0.074188 -0.84082,0.074188c0,0 -3.29303,-3.63739 -3.853577,-3.63739l-0.000183,0.000275z" id="path3146" fill-rule="evenodd" fill="#0d0d0d"/>
    <path d="m899.11853,233.422806l-5.67572,-21.973358l-0.210083,-4.304993l2.032471,4.15657l6.095825,20.784622l-2.242493,1.337158l0,0z" id="path3148" fill-rule="evenodd" fill="#0d0d0d"/>
    <path d="m896.45636,214.715836l-0.42041,-5.864334l2.031921,4.676605l4.62439,18.632217l-1.471436,0.519653l-4.764465,-17.964142z" id="path3150" fill-rule="evenodd" fill="#0d0d0d"/>
    <path d="m906.05542,229.933395l-3.713562,-19.374557l-0.350281,-4.453934l1.541382,4.231247l4.624512,19.003372l-2.102051,0.593872z" id="path3152" fill-rule="evenodd" fill="#0d0d0d"/>
    <path d="m915.093872,227.743546l-1.751648,-12.35965l0.070007,-5.641602l1.751648,5.4189l1.821716,12.545227l-1.891724,0.037109l0,0.000015z" id="path3154" fill-rule="evenodd" fill="#0d0d0d"/>
    <path d="m918.930542,226.617554l-1.585327,-16.114395l0.14856,-4.56662l1.288208,5.091492l1.833069,15.537048l-1.684509,0.052429l0,0.000046z" id="path3156" fill-rule="evenodd" fill="#0d0d0d"/>
    <path d="m935.067383,225.32814l0.163086,-15.402374l0.545044,-4.461655l0.842224,4.304169l0.198242,15.537033l-1.748596,0.022766l0,0.000061z" id="path3158" fill-rule="evenodd" fill="#0d0d0d"/>
    <path d="m940.184937,224.727951l0.247742,-8.450897l1.189026,-6.193817l0.990906,6.561249l-0.198181,8.293411l-2.229492,-0.209946z" id="path3160" fill-rule="evenodd" fill="#0d0d0d"/>
    <path d="m951.580017,225.462814l1.535889,-14.854706l1.139465,-4.619095l0.297302,5.301483l-1.486328,14.487228l-1.486328,-0.314911z" id="path3162" fill-rule="evenodd" fill="#0d0d0d"/>
    <path d="m963.619263,227.9823l2.576233,-12.650055l1.98175,-5.721405l-0.495422,6.351273l-2.229492,12.807556l-1.833069,-0.787369z" id="path3164" fill-rule="evenodd" fill="#0d0d0d"/>
    <path d="m966.88916,228.97963l3.418518,-17.479172l0.297241,-4.934052l-1.634888,5.143997l-3.5672,16.901764l1.486328,0.367462z" id="path3166" fill-rule="evenodd" fill="#0d0d0d"/>
    <path d="m974.4198,231.814087l5.30127,-18.528961l1.98175,-4.409164l-0.445923,5.458984l-4.706665,18.686401l-2.130432,-1.20726z" id="path3168" fill-rule="evenodd" fill="#0d0d0d"/>
   </g>
  </g>
  <g id="layer7" display="inline">
   <g id="g12775">
    <path d="m704.625854,202.527191l0.505798,0.011414l0.44281,-2.456894l0.205383,-0.889297l-0.289612,-0.021011l-0.027283,-0.187912l0.363037,-0.012329l0.285828,-1.784302l0.133667,-0.979584l0.116333,1.002106l0.299683,1.762177l0.2901,0.010666l0.030396,0.202896l-0.297485,-0.022171l0.830994,5.120773l0.057617,35.49173l0,0l-11.001648,-0.001221l0,-35.492981l0.845276,-5.209641l-0.262695,0.024307l0.021423,-0.173767l0.265198,-0.021393l0.263062,-1.393204l0.164612,-1.168533l0.093811,1.176697l0.252563,1.323761l0.264221,0.018768l-0.010803,0.141174l-0.219421,0.022781l0.263794,1.057022l0.814453,2.442398l0.504883,-0.003799l2.309021,-8.21933l2.484985,8.22876l0,-0.000061z" id="path2236" stroke-width="1px" stroke="#000000" fill-rule="evenodd" fill="#000000"/>
    <path d="m772.679016,202.485565l0.699402,0l0.44281,-2.479675l0.205383,-0.889297l-0.289612,-0.021011l-0.027283,-0.187897l0.363037,-0.012344l0.285828,-1.784286l0.133667,-0.979584l0.116333,1.002106l0.299683,1.762177l0.2901,0.010651l0.030396,0.202911l-0.297485,-0.022171l0.830994,5.120758l0.057617,35.491745l0,0l-11.001648,-0.001221l0,-35.492996l0.845276,-5.209641l-0.262695,0.024323l0.021423,-0.173767l0.265198,-0.021393l0.263062,-1.393219l0.164612,-1.168533l0.093811,1.176712l0.252563,1.323746l0.264221,0.018784l-0.010803,0.141174l-0.219421,0.022766l0.263794,1.057037l0.696777,2.552475l0.649109,0.003784l2.282471,-8.337006l2.291382,8.262924l0,-0.000031z" id="path7339" stroke-width="1px" stroke="#000000" fill-rule="evenodd" fill="#000000"/>
    <path d="m764.835327,210.08963l-26.096375,0.007751l0,-0.501068c0,0 0.159424,-1.009735 -0.470703,-0.956604c0.022766,-0.007568 -0.569397,-0.091095 -0.516235,0.827545l-1.267883,-0.015182l-0.015198,-0.781998c0,0 0.865479,-1.017303 -0.296082,-1.381744c-0.589783,0.238327 -0.585571,0.801178 -0.243408,1.305695c0.161987,0.238861 0.061523,0.613495 0.061218,0.87323l-1.290649,0.007568c0,0 0.040894,-0.821091 -0.318848,-0.819931c0,0 -0.796509,-0.201691 -0.614258,1.180069l-26.330078,0l0,3.894409l58.68689,0l0,-3.650482l-1.288391,0.010742l0,0z" id="path7342" stroke-width="1px" stroke="#000000" fill-rule="evenodd" fill="#000000"/>
    <g id="g13443" display="inline">
     <path d="m697.423218,213.992706c-16.783447,16.759567 -25.181885,24.523026 -46.654419,25.190369c0,0 -16.812378,0.961487 -26.240967,-6.202759c0,0.042953 0,0.042953 0,0.042953" id="path8345" stroke-miterlimit="4" stroke-width="3.3" stroke="#000000" fill="none"/>
     <path d="m697.163635,213.118439c0,0 -23.910461,22.209442 -46.464905,24.766739c0,0 -11.733948,0.9935 -26.492798,-6.416306" id="path8336" stroke-miterlimit="4" stroke-width="3.3" stroke="#000000" fill="none"/>
     <path d="m691.000427,218.350525l-1.791748,3.765625" id="path11254" stroke-width="1px" stroke="#000000" fill="none"/>
     <path d="m688.297668,220.111877l3.644165,-0.24295" id="path11256" stroke-width="1px" stroke="#000000" fill="none"/>
     <path d="m688.783569,220.233353l-1.336243,3.279739l0,0l0.121521,-0.091095" id="path11258" stroke-width="1px" stroke="#000000" fill="none"/>
     <path d="m681.965942,225.168152l3.765625,-0.273315" id="path11262" stroke-width="1px" stroke="#000000" fill="none"/>
     <path d="m681.191528,225.60849l-3.49231,5.557343" id="path11264" stroke-width="1px" stroke="#000000" fill="none"/>
     <path d="m677.046265,228.326431l5.101868,0.2733" id="path11266" stroke-width="1px" stroke="#000000" fill="none"/>
     <path d="m676.378174,228.508636l-3.401184,5.739563" id="path11268" stroke-width="1px" stroke="#000000" fill="none"/>
     <path d="m672.642944,230.482559l4.464111,1.700607" id="path11270" stroke-width="1px" stroke="#000000" fill="none"/>
     <path d="m671.853394,231.029175l-3.553101,5.253677" id="path11272" stroke-width="1px" stroke="#000000" fill="none"/>
     <path d="m668.057373,232.729797l4.52478,2.004272" id="path11274" stroke-width="1px" stroke="#000000" fill="none"/>
     <path d="m667.632202,233.063843l-3.887085,4.585571" id="path11276" stroke-width="1px" stroke="#000000" fill="none"/>
     <path d="m663.593262,234.703705l4.069336,1.791733" id="path11278" stroke-width="1px" stroke="#000000" fill="none"/>
     <path d="m662.196289,235.311066l-3.006409,3.31012" id="path11280" stroke-width="1px" stroke="#000000" fill="none"/>
     <path d="m658.855835,236.313217l3.49231,1.548767" id="path11282" stroke-width="1px" stroke="#000000" fill="none"/>
     <path d="m657.580383,236.799118c-0.12146,0 -2.793884,2.186493 -2.793884,2.186493" id="path11284" stroke-width="1px" stroke="#000000" fill="none"/>
     <path d="m654.604309,237.315369l2.976074,1.427292" id="path11286" stroke-width="1px" stroke="#000000" fill="none"/>
     <path d="m653.723633,237.710159l-2.186523,1.579132" id="path11288" stroke-width="1px" stroke="#000000" fill="none"/>
     <path d="m651.233459,238.013824l3.097534,1.305832" id="path11290" stroke-miterlimit="4" stroke-width="2" stroke="#000000" fill="none"/>
     <path d="m690.711914,220.521851l0,21.318359" id="path12267" stroke-miterlimit="4" stroke-width="2" stroke="#000000" fill="none"/>
     <path d="m686.156677,221.858032l0,20.103638" id="path12269" stroke-miterlimit="4" stroke-width="2" stroke="#000000" fill="none"/>
     <path d="m681.601501,224.712631l0,17.218674" id="path12271" stroke-miterlimit="4" stroke-width="2" stroke="#000000" fill="none"/>
     <path d="m676.924805,227.870911l0,13.969299" id="path12273" stroke-miterlimit="4" stroke-width="2" stroke="#000000" fill="none"/>
     <path d="m672.187378,230.482559l0,11.357651" id="path12275" stroke-miterlimit="4" stroke-width="2" stroke="#000000" fill="none"/>
     <path d="m667.814453,232.426117l0,9.353348l0.117371,-0.06778l0.004089,0.00705" id="path12277" stroke-miterlimit="4" stroke-width="2" stroke="#000000" fill="none"/>
     <path d="m663.198486,234.369659l0,7.470551" id="path12279" stroke-miterlimit="4" stroke-width="2" stroke="#000000" fill="none"/>
     <path d="m658.764771,235.948807l0,6.012863" id="path12281" stroke-miterlimit="4" stroke-width="2" stroke="#000000" fill="none"/>
     <path d="m654.148804,237.224258l0,4.798157" id="path12283" stroke-miterlimit="4" stroke-width="2" stroke="#000000" fill="none"/>
     <path d="m686.414856,221.964325l3.385986,-0.212585" id="path12376" stroke-width="1px" stroke="#000000" fill="none"/>
     <path d="m685.124207,222.814636l-2.793884,5.071457" id="path12378" stroke-width="1px" stroke="#000000" fill="none"/>
     <path d="m645.372437,241.756058l0,-4.160431" id="path7591" stroke-miterlimit="4" stroke-width="2" stroke="#000000" fill="none"/>
     <path d="m640.543945,241.756058l0,-4.767792" id="path7593" stroke-miterlimit="4" stroke-width="2" stroke="#000000" fill="none"/>
     <path d="m635.988708,241.664948l0,-5.739563" id="path7595" stroke-miterlimit="4" stroke-width="2" stroke="#000000" fill="none"/>
     <path d="m631.403137,241.513107l0,-6.954269l0.12146,0" id="path7597" stroke-miterlimit="4" stroke-width="2" stroke="#000000" fill="none"/>
     <path d="m626.96936,241.330902l0,-8.594147" id="path7599" stroke-miterlimit="4" stroke-width="2" stroke="#000000" fill="none"/>
     <path d="m645.524292,238.840729l3.583374,-0.819946" id="path8572" stroke-width="1px" stroke="#000000" fill="none"/>
     <path d="m645.554626,237.534897l3.826355,1.670242" id="path8574" stroke-width="1px" stroke="#000000" fill="none"/>
     <path d="m640.726135,238.476303l4.980347,-0.668091" id="path8576" stroke-width="1px" stroke="#000000" fill="none"/>
     <path d="m640.786865,236.957901l4.676636,2.307968l0,-0.030365l0,0" id="path8578" stroke-width="1px" stroke="#000000" fill="none"/>
     <path d="m636.049438,237.808212l4.373047,-0.728836" id="path8580" stroke-width="1px" stroke="#000000" fill="none"/>
     <path d="m636.110168,235.98613l4.190796,2.733124" id="path8582" stroke-width="1px" stroke="#000000" fill="none"/>
     <path d="m631.494263,236.745331l4.433716,-0.850311" id="path8584" stroke-width="1px" stroke="#000000" fill="none"/>
     <path d="m631.524597,234.498093l4.372986,3.340485l0,0" id="path8586" stroke-width="1px" stroke="#000000" fill="none"/>
     <path d="m627.030151,234.892883l4.251465,-0.36441" id="path8588" stroke-width="1px" stroke="#000000" fill="none"/>
     <path d="m627.151611,232.70639l4.069336,3.826355" id="path8590" stroke-width="1px" stroke="#000000" fill="none"/>
    </g>
    <g id="g12056" display="inline">
     <g id="g11860" display="inline">
      <path d="m774.688171,214.092621c16.783508,16.759552 25.181946,24.52301 46.654419,25.190353c0,0 16.812378,0.961487 26.240967,-6.202744" id="path11862" stroke-miterlimit="4" stroke-width="3.3" stroke="#000000" fill="none"/>
      <path d="m774.947815,213.218323c0,0 23.910461,22.209457 46.464905,24.766754c0,0 11.733948,0.993515 26.492798,-6.41629" id="path11864" stroke-miterlimit="4" stroke-width="3.3" stroke="#000000" fill="none"/>
      <path d="m781.111023,218.450439l1.791687,3.765625" id="path11866" stroke-width="1px" stroke="#000000" fill="none"/>
      <path d="m783.813782,220.211777l-3.644165,-0.24295" id="path11868" stroke-width="1px" stroke="#000000" fill="none"/>
      <path d="m783.327881,220.333237l1.336182,3.27977l0,0l-0.12146,-0.091125" id="path11870" stroke-width="1px" stroke="#000000" fill="none"/>
      <path d="m790.145508,225.268051l-3.765625,-0.2733" id="path11872" stroke-width="1px" stroke="#000000" fill="none"/>
      <path d="m790.919922,225.708389l3.49231,5.557358" id="path11874" stroke-width="1px" stroke="#000000" fill="none"/>
      <path d="m795.065125,228.426331l-5.101807,0.273315" id="path11876" stroke-width="1px" stroke="#000000" fill="none"/>
      <path d="m795.733215,228.608551l3.401245,5.739548" id="path11878" stroke-width="1px" stroke="#000000" fill="none"/>
      <path d="m799.468506,230.582458l-4.464111,1.700623" id="path11880" stroke-width="1px" stroke="#000000" fill="none"/>
      <path d="m800.258057,231.129089l3.55304,5.253662" id="path11882" stroke-width="1px" stroke="#000000" fill="none"/>
      <path d="m804.054077,232.829697l-4.524841,2.004288" id="path11884" stroke-width="1px" stroke="#000000" fill="none"/>
      <path d="m804.479248,233.163742l3.887085,4.585571" id="path11886" stroke-width="1px" stroke="#000000" fill="none"/>
      <path d="m808.518188,234.803619l-4.069336,1.791718" id="path11888" stroke-width="1px" stroke="#000000" fill="none"/>
      <path d="m809.9151,235.41098l3.006409,3.31012" id="path11890" stroke-width="1px" stroke="#000000" fill="none"/>
      <path d="m813.255554,236.413116l-3.49231,1.548782" id="path11892" stroke-width="1px" stroke="#000000" fill="none"/>
      <path d="m814.531067,236.899017c0.12146,0 2.793823,2.186493 2.793823,2.186493" id="path11894" stroke-width="1px" stroke="#000000" fill="none"/>
      <path d="m817.50708,237.415268l-2.976013,1.427292" id="path11896" stroke-width="1px" stroke="#000000" fill="none"/>
      <path d="m818.387756,237.810059l2.186523,1.579132" id="path11898" stroke-width="1px" stroke="#000000" fill="none"/>
      <path d="m820.877991,238.113739l-3.097595,1.305817" id="path11900" stroke-miterlimit="4" stroke-width="2" stroke="#000000" fill="none"/>
      <path d="m781.399536,220.621735l0,21.318375" id="path11902" stroke-miterlimit="4" stroke-width="2" stroke="#000000" fill="none"/>
      <path d="m785.954712,221.957947l0,20.103638" id="path11904" stroke-miterlimit="4" stroke-width="2" stroke="#000000" fill="none"/>
      <path d="m790.509949,224.812531l0,17.218674" id="path11906" stroke-miterlimit="4" stroke-width="2" stroke="#000000" fill="none"/>
      <path d="m795.186584,227.97081l0,13.969299" id="path11908" stroke-miterlimit="4" stroke-width="2" stroke="#000000" fill="none"/>
      <path d="m799.924011,230.582458l0,11.357651" id="path11910" stroke-miterlimit="4" stroke-width="2" stroke="#000000" fill="none"/>
      <path d="m804.296997,232.526016l0,9.353348l-0.117371,-0.06778l-0.004089,0.00705" id="path11912" stroke-miterlimit="4" stroke-width="2" stroke="#000000" fill="none"/>
      <path d="m808.912964,234.469574l0,7.470535" id="path11914" stroke-miterlimit="4" stroke-width="2" stroke="#000000" fill="none"/>
      <path d="m813.34668,236.048706l0,6.012878" id="path11916" stroke-miterlimit="4" stroke-width="2" stroke="#000000" fill="none"/>
      <path d="m817.962646,237.324158l0,4.798157" id="path11918" stroke-miterlimit="4" stroke-width="2" stroke="#000000" fill="none"/>
      <path d="m785.696594,222.064209l-3.386047,-0.212555" id="path11920" stroke-width="1px" stroke="#000000" fill="none"/>
      <path d="m786.987244,222.91452l2.793823,5.071472" id="path11922" stroke-width="1px" stroke="#000000" fill="none"/>
      <path d="m826.739014,241.855957l0,-4.160416" id="path11924" stroke-miterlimit="4" stroke-width="2" stroke="#000000" fill="none"/>
      <path d="m831.567505,241.855957l0,-4.767776" id="path11926" stroke-miterlimit="4" stroke-width="2" stroke="#000000" fill="none"/>
      <path d="m836.122742,241.764847l0,-5.739548" id="path11928" stroke-miterlimit="4" stroke-width="2" stroke="#000000" fill="none"/>
      <path d="m840.708313,241.613007l0,-6.954285l-0.121521,0" id="path11930" stroke-miterlimit="4" stroke-width="2" stroke="#000000" fill="none"/>
      <path d="m845.142029,241.430801l0,-8.594162" id="path11932" stroke-miterlimit="4" stroke-width="2" stroke="#000000" fill="none"/>
      <path d="m826.587158,238.940628l-3.583435,-0.819946" id="path11934" stroke-width="1px" stroke="#000000" fill="none"/>
      <path d="m826.556763,237.634796l-3.826355,1.670242" id="path11936" stroke-width="1px" stroke="#000000" fill="none"/>
      <path d="m831.385315,238.576202l-4.980347,-0.668091" id="path11938" stroke-width="1px" stroke="#000000" fill="none"/>
      <path d="m831.324585,237.0578l-4.676697,2.307983l0,-0.03038l0,0" id="path11940" stroke-width="1px" stroke="#000000" fill="none"/>
      <path d="m836.061951,237.908112l-4.372986,-0.728836" id="path11942" stroke-width="1px" stroke="#000000" fill="none"/>
      <path d="m836.001221,236.086029l-4.190796,2.733124" id="path11944" stroke-width="1px" stroke="#000000" fill="none"/>
      <path d="m840.617188,236.84523l-4.433716,-0.850296" id="path11946" stroke-width="1px" stroke="#000000" fill="none"/>
      <path d="m840.586792,234.597992l-4.372986,3.340485l0,0" id="path11948" stroke-width="1px" stroke="#000000" fill="none"/>
      <path d="m845.081299,234.992783l-4.251526,-0.364426" id="path11950" stroke-width="1px" stroke="#000000" fill="none"/>
      <path d="m844.959839,232.806274l-4.069336,3.826385" id="path11952" stroke-width="1px" stroke="#000000" fill="none"/>
     </g>
     <path d="m854.25708,231.593811l15.334717,9.248642" id="path11954" stroke-miterlimit="4" stroke-width="2.137787" stroke="#000000" fill="none"/>
     <path d="m853.634338,232.109177l14.530212,8.974701" id="path11956" stroke-miterlimit="4" stroke-width="2.137787" stroke="#000000" fill="none"/>
    </g>
    <path d="m651.238525,242.241882l-0.010742,-2.898911c0,0 -0.569031,-0.096634 -0.536865,-0.311371c0.032227,-0.214722 0.35498,-0.059097 0.450928,-0.322098c0.307983,-0.843597 -0.150269,-1.46019 -0.971863,-1.473343c-0.907532,0.00296 -1.312073,0.635651 -1.00415,1.479248c0.096008,0.263016 0.418762,0.107376 0.450928,0.322113c0.032227,0.214722 -0.536804,0.311356 -0.536804,0.311356l-0.026855,2.74324l0,0.161057l2.185425,-0.011276l0,-0.000015z" id="path2241" stroke-width="1px" stroke="#000000" fill-rule="evenodd" fill="#000000"/>
    <path d="m822.97406,242.229584l-0.010742,-2.898926c0,0 -0.569031,-0.096619 -0.536865,-0.311371c0.032227,-0.214737 0.35498,-0.059097 0.450989,-0.322098c0.307983,-0.843597 -0.15033,-1.46019 -0.971924,-1.473343c-0.907532,0.00296 -1.312134,0.635651 -1.00415,1.479263c0.096008,0.263 0.418701,0.107361 0.450928,0.322098c0.032227,0.214737 -0.536804,0.311356 -0.536804,0.311356l-0.026855,2.74324l0,0.161057l2.185425,-0.011276l0,0z" id="path2249" stroke-width="1px" stroke="#000000" fill-rule="evenodd" fill="#000000"/>
    <path d="m617.290833,242.264297l76.164734,0.010834l0.000488,-0.431931l0,0c-0.006592,0 -67.754272,-0.143448 -76.169556,-0.149002l0.004272,0.570099l0.000061,0z" id="path10593" stroke-miterlimit="4" stroke-width="0.904122" stroke="#000000" fill-rule="evenodd" fill="#000000"/>
    <path d="m617.297607,239.642181l76.296143,0l0,1.44838l-76.295715,0l-0.000488,-1.44838l0.000061,0z" id="path2253" stroke-miterlimit="4" stroke-width="0.904122" stroke="#000000" fill-rule="evenodd" fill="#000000"/>
    <g id="g2268" display="inline">
     <path d="m778.786133,239.732895l136.100525,0l0,1.503128l-136.238281,0l0.137756,-1.503128z" id="path2264" stroke-width="1px" stroke="#000000" fill-rule="evenodd" fill="#000000"/>
     <path d="m914.685913,241.865341c-0.012146,0 -136.418762,-0.054031 -136.418762,-0.054031l0.010986,0.502289l136.406799,0l0.000732,-0.448257l0.000244,0z" id="path2266" stroke-width="1px" stroke="#000000" fill-rule="evenodd" fill="#000000"/>
    </g>
    <path d="m761.499817,239.66066l17.82605,0l0,10.082184l-17.917175,0l0.091125,-10.082184z" id="path2276" stroke-width="1px" stroke="#000000" fill-rule="evenodd" fill="#000000"/>
    <path d="m693.202087,239.66066l17.82605,0l0,10.082184l-17.917175,0l0.091125,-10.082184z" id="path2280" stroke-width="1px" stroke="#000000" fill-rule="evenodd" fill="#000000"/>
    <g id="g4241" display="inline">
     <path d="m709.484314,240.491623l22.935425,-11.430832l0.681519,1.352875l-22.949585,11.428192l-0.667358,-1.350235z" id="path2291" stroke-width="1px" stroke="#000000" fill-rule="evenodd" fill="#000000"/>
     <path d="m709.619263,247.341034c0.016663,0.002914 13.938843,-11.523621 23.158142,-16.236267l0.643982,-0.329163" id="path2296" stroke-miterlimit="4" stroke-width="3" stroke="#000000" fill="none"/>
     <path d="m712.057129,245.237228l-2.226379,-3.858047l4.180115,1.62944l-1.354736,-2.788467l3.959778,0.942642l-1.325745,-2.686218l3.676575,0.927795l-1.091125,-2.287308l3.460876,0.663361l-0.923706,-1.854919l2.870728,0.393524l-0.823608,-1.412994l2.621277,0.253876l-0.679871,-1.220673l2.275696,0.138062l-0.536072,-1.028381l2.074158,0.070526l-0.765869,-1.489716l0,0" id="path3270" stroke-miterlimit="4" stroke-width="2.9" stroke="#000000" fill="none"/>
    </g>
    <g id="g4247" display="inline">
     <path d="m762.690796,240.281723l-22.935364,-11.430862l-0.681519,1.352905l22.949524,11.428192l0.667358,-1.350235z" id="path4249" stroke-width="1px" stroke="#000000" fill-rule="evenodd" fill="#000000"/>
     <path d="m762.555908,247.131134c-0.016663,0.002914 -13.938843,-11.523621 -23.158142,-16.236267l-0.643982,-0.329163" id="path4251" stroke-miterlimit="4" stroke-width="3" stroke="#000000" fill="none"/>
     <path d="m760.118042,245.027328l2.226379,-3.858047l-4.180115,1.62944l1.354736,-2.788467l-3.959839,0.942642l1.325806,-2.686218l-3.676575,0.92778l1.091125,-2.287308l-3.460938,0.663361l0.923767,-1.854904l-2.870728,0.393524l0.823608,-1.412994l-2.621277,0.253876l0.679871,-1.220673l-2.275757,0.138062l0.536133,-1.028381l-2.074158,0.070526l0.765869,-1.489716l0,0" id="path4253" stroke-miterlimit="4" stroke-width="2.9" stroke="#000000" fill="none"/>
    </g>
    <path d="m620.830933,219.625397c0.083496,-0.036682 0.149536,-0.134155 0.149536,-0.235626l0,0c0,-0.134552 -0.103394,-0.24379 -0.230835,-0.24379c-0.127441,0 -0.230835,0.109238 -0.230835,0.24379c0,0.105591 0.06366,0.195557 0.161621,0.234894l-0.023193,1.365875l-0.386475,0.005676l0,0.262085l0.144653,0c0,0 0.03186,0.398193 -0.043945,0.690918c-1.002014,2.611588 -1.927612,2.929138 -1.927612,2.929138l-1.129211,-0.010895l-0.544861,1.043213l-0.01123,3.578064l-0.580444,0.006317l-0.008057,0.803543l0.599731,0l0,8.380203l-0.665649,1.723572l0.021484,8.61792l0,0l9.150879,-0.000244l-0.021484,-8.730942l-0.687012,-1.723587l0,-8.267181l0.599731,0l-0.008057,-0.803528l-0.580444,-0.006317l-0.01123,-3.578033l-0.480469,-0.997879l-0.996277,-0.03447c0,0 -0.804382,-0.492889 -1.940125,-2.966492c-0.029236,-0.451797 0.003296,-0.655319 -0.001953,-0.65918l0,0l0.144043,0.001938l-0.002686,-0.269302l-0.391846,0l-0.067932,-1.359497l0.000183,-0.000183z" id="path12772" stroke-miterlimit="4" stroke-width="0.205521" stroke="#000000" fill-rule="evenodd" fill="#000000"/>
    <path d="m851.142029,219.625397c0.083618,-0.036682 0.149597,-0.134155 0.149597,-0.235626l0,0c0,-0.134552 -0.103394,-0.24379 -0.230774,-0.24379c-0.127441,0 -0.230835,0.109238 -0.230835,0.24379c0,0.105591 0.063599,0.195557 0.161621,0.234894l-0.023071,1.365875l-0.386536,0.005676l0,0.262085l0.144592,0c0,0 0.031921,0.398193 -0.043884,0.690918c-1.002014,2.611588 -1.927551,2.929138 -1.927551,2.929138l-1.129211,-0.010895l-0.544922,1.043213l-0.011169,3.578064l-0.580505,0.006317l-0.007996,0.803543l0.59967,0l0,8.380203l-0.665588,1.723572l0.021423,8.61792l0,0l9.150879,-0.000244l-0.021362,-8.730942l-0.687073,-1.723587l0,-8.267181l0.59967,0l-0.007996,-0.803528l-0.580505,-0.006317l-0.011169,-3.578033l-0.480469,-0.997879l-0.996277,-0.03447c0,0 -0.804321,-0.492889 -1.940186,-2.966492c-0.029175,-0.451797 0.003418,-0.655319 -0.00238,-0.65918l0,0l0.144043,0.001938l-0.002747,-0.269302l-0.391785,0l-0.067932,-1.359497l0.000427,-0.000183z" id="path12108" stroke-miterlimit="4" stroke-width="0.205521" stroke="#000000" fill-rule="evenodd" fill="#000000"/>
   </g>
  </g>
  <g id="layer4" display="inline">
   <path d="m339.483063,247.66098l10.99585,0l0,-1.5737l-1.089508,0l0,-1.29126l-1.250885,0l0,-2.945679l-0.763184,-0.440613l0,-4.280548l0.722839,-0.504379l0,-0.50441l-0.786865,-0.484222l0,-0.443863l0.009979,-0.323685c0,0 0.014313,-0.271057 -0.242523,-0.285324c0.014313,-0.014297 0.156921,-0.456528 -0.199738,-0.613449c0.042816,0 -0.242523,-29.6315 -0.242523,-29.6315c0,0 -0.194885,-0.15387 -0.318573,-0.183929c0.061798,-0.03009 0.347107,-2.455383 1.031891,-3.026031c0.000488,-0.0513 -0.002991,-0.103912 -0.002991,-0.103912l-0.1362,-0.010086l0,-0.171494l0.166443,-0.070618l0,-0.141235c0,0 -0.680939,-0.055481 -0.807007,-0.327866c-0.005005,-0.025208 -0.277435,-1.376984 -0.958374,-1.52327c0.032501,-0.003387 -0.479156,-0.005005 -0.535034,-0.003906c-0.055908,0.001205 -0.580994,0.005112 -0.535034,0.00621c-0.559814,0.078995 -0.953308,1.498062 -0.958344,1.52327c-0.126099,0.2724 -0.807037,0.327866 -0.807037,0.327866l0,0.14122l0.166443,0.070633l0,0.171494l-0.1362,0.010101c0,0 -0.003998,0.052582 -0.002991,0.103882c0.684784,0.570663 0.970123,2.995972 1.031891,3.026047c-0.123688,0.03006 -0.318573,0.183914 -0.318573,0.183914c0,0 -0.285309,29.631516 -0.242523,29.631516c-0.356659,0.156906 -0.213989,0.599197 -0.199707,0.613449c-0.256805,0.014313 -0.242554,0.285339 -0.242554,0.285339l0.01001,0.323669l0,0.443878l-0.786865,0.484222l0,0.504395l0.722809,0.504395l0,4.280533l-0.763153,0.440628l0,2.945648l-1.250916,0l0,1.29126l-1.089508,0l0,1.57373l10.99585,0" id="path2912" stroke-width="0.071779px" stroke="#000000" fill-rule="evenodd" fill="#000000"/>
   <path d="m344.176941,198.972565l-0.995911,-0.009003c0,0 0.287109,-0.385803 0.322998,-0.61908c0.053802,-0.233276 0.367859,-0.278137 0.41272,-0.448608c0,0.053818 0.269165,-1.686798 0.385803,-1.758575c0.116638,-0.071777 -0.107666,-0.098694 -0.107666,-0.098694c0,0 -0.071808,0.188416 -0.188416,0.197372c-0.107666,0.009018 -0.20636,-0.520386 -0.20636,-0.520386l-0.009003,-0.592178l0.080688,-0.053833l0.018005,-0.179443l0.287109,-0.062805c0,0 0.116638,0.017944 0.215363,0.107681c0.008972,0 0.12561,-0.134598 0.233276,-0.107681c0.098694,0.009003 0.035889,-0.358887 0.035889,-0.358887l-0.305054,-0.017944c0,0 0.197388,-0.924133 0.654968,-0.986954c0.009003,0 -0.0112,-0.122787 0.017914,-0.134598c0.083008,-0.03363 0.142944,-0.015442 0.161499,0c0.013519,0.01123 0.017914,0.188446 0.017914,0.188446c0,0 0.179443,0.12561 0.269165,0.251221c-0.009003,-0.053833 0.152527,0.251221 0.152527,0.251221c0,0 0.09079,0.011597 0.098694,0.017944c0.022308,0.017868 -0.001007,0.175186 -0.009003,0.197403c-0.003998,0.012314 -0.224304,0.053818 -0.224304,0.053818l-0.134583,0.071777l-0.062805,0.035904l-0.017883,0.457581l0.215332,0.107666l0.035889,0.071777c0,0 0.196869,-0.021011 0.323029,0c0.026886,0.004517 0.143555,0.197403 0.107666,0.385818c-0.018005,0.188416 0.080688,0.475525 0.080688,0.475525l0.12561,0.287109l0.080811,0.34993l0.188416,0.044861l0.071808,0.134598l-0.009003,0.116638l-0.215332,0.089722l-0.475555,2.02774l-0.143555,-0.053833l0.520386,-2.018768c0,0 -0.116638,0.009003 -0.170471,-0.044861c-0.053772,-0.053833 -0.287109,-0.592163 -0.278137,-0.708817c-0.017883,-0.017929 -0.089691,-0.026917 -0.089691,-0.026917l0,0.242264l0.062805,0.035889l-0.009003,1.139465l-0.134583,0.601166l-0.260193,0.026917c0,0 -0.080688,0.197388 -0.026917,0.251221c0,0.017944 0.367889,0.035889 0.358917,0.421692c-0.071808,-0.017944 -1.462494,0.179443 -1.462494,0.161499l0.000031,0z" id="path2914" stroke-width="0.071779px" stroke="#000000" fill-rule="evenodd" fill="#000000"/>
  </g>
  <g id="layer3" display="inline">
   <g id="g3766" display="inline">
    <path d="m290.750732,175.12265c0,1.078217 -0.894897,1.952271 -1.998749,1.952271c-1.103943,0 -1.99881,-0.874054 -1.99881,-1.952271c0,-1.078186 0.894867,-1.95224 1.99881,-1.95224c1.103851,0 1.998749,0.874054 1.998749,1.95224z" id="path2836" fill-rule="nonzero" fill="#000000"/>
    <path d="m283.075775,176.57814c0,1.078201 -0.894897,1.952271 -1.998779,1.952271c-1.103912,0 -1.998779,-0.874069 -1.998779,-1.952271c0,-1.078186 0.894867,-1.952255 1.998779,-1.952255c1.103882,0 1.998779,0.874069 1.998779,1.952255z" id="path2838" fill-rule="nonzero" fill="#000000"/>
    <path d="m276.911896,178.921951c0,1.078201 -0.894897,1.952255 -1.998779,1.952255c-1.103912,0 -1.99881,-0.874054 -1.99881,-1.952255c0,-1.078201 0.894897,-1.952255 1.99881,-1.952255c1.103882,0 1.998779,0.874054 1.998779,1.952255z" id="path2840" fill-rule="nonzero" fill="#000000"/>
    <path d="m271.171478,182.506592c0,1.078232 -0.894867,1.952271 -1.99881,1.952271c-1.103882,0 -1.998749,-0.874039 -1.998749,-1.952271c0,-1.078186 0.894867,-1.95224 1.998749,-1.95224c1.103943,0 1.99881,0.874054 1.99881,1.95224z" id="path2842" fill-rule="nonzero" fill="#000000"/>
    <path d="m266.466217,186.964432c0,1.078217 -0.894867,1.952255 -1.998779,1.952255c-1.103912,0 -1.998779,-0.874039 -1.998779,-1.952255c0,-1.078201 0.894867,-1.95224 1.998779,-1.95224c1.103912,0 1.998779,0.874039 1.998779,1.95224z" id="path2844" fill-rule="nonzero" fill="#000000"/>
    <path d="m262.654968,192.249481c0,1.078232 -0.894867,1.952271 -1.998779,1.952271c-1.103912,0 -1.998779,-0.874039 -1.998779,-1.952271c0,-1.078186 0.894867,-1.952255 1.998779,-1.952255c1.103912,0 1.998779,0.874069 1.998779,1.952255z" id="path2846" fill-rule="nonzero" fill="#000000"/>
    <path d="m259.831818,198.315826c0,1.078201 -0.894897,1.952255 -1.998779,1.952255c-1.103912,0 -1.99881,-0.874054 -1.99881,-1.952255c0,-1.078201 0.894897,-1.952255 1.99881,-1.952255c1.103882,0 1.998779,0.874054 1.998779,1.952255z" id="path2848" fill-rule="nonzero" fill="#000000"/>
    <path d="m258.326141,204.749802c0,1.078186 -0.894867,1.952271 -1.998779,1.952271c-1.103897,0 -1.99881,-0.874084 -1.99881,-1.952271c0,-1.078186 0.894913,-1.952255 1.99881,-1.952255c1.103912,0 1.998779,0.874069 1.998779,1.952255z" id="path2850" fill-rule="nonzero" fill="#000000"/>
    <path d="m257.855621,211.275696c0,1.078217 -0.894928,1.952271 -1.998795,1.952271c-1.103897,0 -1.99881,-0.874054 -1.99881,-1.952271c0,-1.078186 0.894913,-1.95224 1.99881,-1.95224c1.103867,0 1.998795,0.874054 1.998795,1.95224z" id="path2852" fill-rule="nonzero" fill="#000000"/>
    <path d="m258.984894,217.985443c0,1.078201 -0.894928,1.952255 -1.99881,1.952255c-1.103897,0 -1.99881,-0.874054 -1.99881,-1.952255c0,-1.078201 0.894913,-1.952271 1.99881,-1.952271c1.103882,0 1.99881,0.874069 1.99881,1.952271z" id="path2854" fill-rule="nonzero" fill="#000000"/>
    <path d="m261.149323,224.235596c0,1.078186 -0.894897,1.95224 -1.99881,1.95224c-1.103912,0 -1.99881,-0.874054 -1.99881,-1.95224c0,-1.078217 0.894897,-1.952271 1.99881,-1.952271c1.103912,0 1.99881,0.874054 1.99881,1.952271z" id="path2856" fill-rule="nonzero" fill="#000000"/>
    <path d="m264.772339,230.393829c0,1.078201 -0.894867,1.952255 -1.998779,1.952255c-1.103912,0 -1.998779,-0.874054 -1.998779,-1.952255c0,-1.078186 0.894867,-1.952255 1.998779,-1.952255c1.103912,0 1.998779,0.874069 1.998779,1.952255z" id="path2858" fill-rule="nonzero" fill="#000000"/>
    <path d="m270.18338,235.908691c0,1.078186 -0.894867,1.95224 -1.998779,1.95224c-1.103912,0 -1.998779,-0.874054 -1.998779,-1.95224c0,-1.078217 0.894867,-1.952271 1.998779,-1.952271c1.103912,0 1.998779,0.874054 1.998779,1.952271z" id="path2860" fill-rule="nonzero" fill="#000000"/>
    <path d="m276.253174,240.090759c0,1.078217 -0.894897,1.952255 -1.998779,1.952255c-1.103943,0 -1.99884,-0.874039 -1.99884,-1.952255c0,-1.078201 0.894897,-1.952255 1.99884,-1.952255c1.103882,0 1.998779,0.874054 1.998779,1.952255z" id="path2862" fill-rule="nonzero" fill="#000000"/>
    <path d="m284.179443,243.077972c0,1.078201 -0.894897,1.952255 -1.99881,1.952255c-1.103882,0 -1.998779,-0.874054 -1.998779,-1.952255c0,-1.078186 0.894897,-1.952255 1.998779,-1.952255c1.103912,0 1.99881,0.874069 1.99881,1.952255z" id="path2864" fill-rule="nonzero" fill="#000000"/>
    <path d="m293.263947,243.810013c0,1.078201 -0.894897,1.952255 -1.99884,1.952255c-1.103882,0 -1.998779,-0.874054 -1.998779,-1.952255c0,-1.078186 0.894897,-1.952255 1.998779,-1.952255c1.103943,0 1.99884,0.874069 1.99884,1.952255z" id="path2866" fill-rule="nonzero" fill="#000000"/>
    <path d="m301.16748,243.376694c0,1.078201 -0.894867,1.952255 -1.99881,1.952255c-1.103851,0 -1.998749,-0.874054 -1.998749,-1.952255c0,-1.078186 0.894897,-1.952255 1.998749,-1.952255c1.103943,0 1.99881,0.874069 1.99881,1.952255z" id="path2868" fill-rule="nonzero" fill="#000000"/>
    <path d="m309.47226,240.688202c0,1.078201 -0.894897,1.952271 -1.998779,1.952271c-1.103912,0 -1.99881,-0.874069 -1.99881,-1.952271c0,-1.078186 0.894897,-1.952255 1.99881,-1.952255c1.103882,0 1.998779,0.874069 1.998779,1.952255z" id="path2870" fill-rule="nonzero" fill="#000000"/>
    <path d="m316.389008,236.230377c0,1.078201 -0.894897,1.952271 -1.99884,1.952271c-1.103851,0 -1.998749,-0.874069 -1.998749,-1.952271c0,-1.078201 0.894897,-1.952271 1.998749,-1.952271c1.103943,0 1.99884,0.874069 1.99884,1.952271z" id="path2872" fill-rule="nonzero" fill="#000000"/>
    <path d="m321.564789,230.853394c0,1.078201 -0.894897,1.952271 -1.99881,1.952271c-1.103882,0 -1.998779,-0.874069 -1.998779,-1.952271c0,-1.078186 0.894897,-1.95224 1.998779,-1.95224c1.103912,0 1.99881,0.874054 1.99881,1.95224z" id="path2874" fill-rule="nonzero" fill="#000000"/>
    <path d="m325.376038,224.924957c0,1.078186 -0.894897,1.952255 -1.99881,1.952255c-1.103882,0 -1.998779,-0.874069 -1.998779,-1.952255c0,-1.078201 0.894897,-1.952271 1.998779,-1.952271c1.103912,0 1.99881,0.874069 1.99881,1.952271z" id="path2876" fill-rule="nonzero" fill="#000000"/>
    <path d="m327.775696,218.399048c0,1.078201 -0.894897,1.95224 -1.998779,1.95224c-1.103912,0 -1.99881,-0.874039 -1.99881,-1.95224c0,-1.078217 0.894897,-1.952255 1.99881,-1.952255c1.103882,0 1.998779,0.874039 1.998779,1.952255z" id="path2878" fill-rule="nonzero" fill="#000000"/>
    <path d="m328.952057,211.873154c0,1.078186 -0.894928,1.952271 -1.99884,1.952271c-1.103882,0 -1.998779,-0.874084 -1.998779,-1.952271c0,-1.078186 0.894897,-1.952271 1.998779,-1.952271c1.103912,0 1.99884,0.874084 1.99884,1.952271z" id="path2880" fill-rule="nonzero" fill="#000000"/>
    <path d="m328.810852,205.117462c0,1.078217 -0.894897,1.952255 -1.998779,1.952255c-1.103912,0 -1.998779,-0.874039 -1.998779,-1.952255c0,-1.078201 0.894867,-1.952255 1.998779,-1.952255c1.103882,0 1.998779,0.874054 1.998779,1.952255z" id="path2882" fill-rule="nonzero" fill="#000000"/>
    <path d="m327.164001,198.315826c0,1.078201 -0.894867,1.952255 -1.998779,1.952255c-1.103912,0 -1.998779,-0.874054 -1.998779,-1.952255c0,-1.078201 0.894867,-1.952255 1.998779,-1.952255c1.103912,0 1.998779,0.874054 1.998779,1.952255z" id="path2884" fill-rule="nonzero" fill="#000000"/>
    <path d="m324.529114,192.617142c0,1.078217 -0.894928,1.952271 -1.99884,1.952271c-1.103882,0 -1.998779,-0.874054 -1.998779,-1.952271c0,-1.078186 0.894897,-1.95224 1.998779,-1.95224c1.103912,0 1.99884,0.874054 1.99884,1.95224z" id="path2886" fill-rule="nonzero" fill="#000000"/>
    <path d="m320.435516,187.010391c0,1.078217 -0.894897,1.952255 -1.99881,1.952255c-1.103882,0 -1.998779,-0.874039 -1.998779,-1.952255c0,-1.078201 0.894897,-1.952271 1.998779,-1.952271c1.103912,0 1.99881,0.874069 1.99881,1.952271z" id="path2888" fill-rule="nonzero" fill="#000000"/>
    <path d="m315.824371,182.598526c0,1.078186 -0.894897,1.952255 -1.99881,1.952255c-1.103912,0 -1.99881,-0.874069 -1.99881,-1.952255c0,-1.078201 0.894897,-1.952271 1.99881,-1.952271c1.103912,0 1.99881,0.874069 1.99881,1.952271z" id="path2890" fill-rule="nonzero" fill="#000000"/>
    <path d="m310.083923,178.967911c0,1.078201 -0.894867,1.952271 -1.998779,1.952271c-1.103912,0 -1.998779,-0.874069 -1.998779,-1.952271c0,-1.078186 0.894867,-1.952255 1.998779,-1.952255c1.103912,0 1.998779,0.874069 1.998779,1.952255z" id="path2892" fill-rule="nonzero" fill="#000000"/>
    <path d="m303.873016,176.486252c0,1.078186 -0.894867,1.952225 -1.99881,1.952225c-1.103882,0 -1.998749,-0.874039 -1.998749,-1.952225c0,-1.078217 0.894867,-1.952271 1.998749,-1.952271c1.103943,0 1.99881,0.874054 1.99881,1.952271z" id="path2894" fill-rule="nonzero" fill="#000000"/>
    <path d="m297.567963,175.245407c0,1.078201 -0.894897,1.952255 -1.998749,1.952255c-1.103943,0 -1.99884,-0.874054 -1.99884,-1.952255c0,-1.078201 0.894897,-1.952271 1.99884,-1.952271c1.103851,0 1.998749,0.874069 1.998749,1.952271z" id="path2896" fill-rule="nonzero" fill="#000000"/>
    <path d="m319.867157,209.255112c0,15.61348 -12.958954,28.270691 -28.94455,28.270691c-15.985687,0 -28.944611,-12.657211 -28.944611,-28.270691c0,-15.613464 12.958923,-28.270691 28.944611,-28.270691c15.985596,0 28.94455,12.657227 28.94455,28.270691z" id="path2898" stroke-dashoffset="0" stroke-miterlimit="4" stroke-width="0.9" stroke="#000000" fill="none"/>
    <path d="m324.568237,209.451508c0,17.906815 -14.862427,32.423172 -33.196075,32.423172c-18.333679,0 -33.196045,-14.516357 -33.196045,-32.423172c0,-17.906815 14.862366,-32.423141 33.196045,-32.423141c18.333649,0 33.196075,14.516327 33.196075,32.423141z" id="path2900" stroke-dashoffset="0" stroke-miterlimit="4" stroke-width="2.827536" stroke="#000000" fill="none"/>
    <path d="m280.4422,182.867935l-2.994446,-2.502243l0.232941,3.802109l-2.894623,-2.339752l0.23288,3.639618l-2.694946,-2.209778l0.565613,3.672119l-2.894592,-1.657333l0.964874,3.249649l-3.659851,-0.942383l1.597046,2.957169l-3.426941,-0.682419l1.730072,3.022186l-3.792908,-0.519958l2.262482,2.859695l-3.593292,0l2.328949,1.949783l-3.493469,0.617447l2.395508,1.917267l-3.593262,1.072418l2.628418,2.047272l-3.060944,1.527344l2.828033,1.364838l-3.593292,1.884796l2.79483,0.519958l-2.927887,2.502228l3.260559,0.389954l-2.927856,2.729721l3.593292,0.162476l-3.094238,2.762207l3.593323,-0.064987l-2.828064,2.599701l3.959259,0.065002l-2.628387,2.664719l3.593262,-0.389954l-2.462097,3.509628l3.926025,-1.234863l-2.262451,4.029556l3.792908,-1.624832l-1.397369,4.712006l3.759644,-2.144775l-1.097961,4.744507l3.892731,-2.372269l-0.698669,4.679504l3.42688,-2.664688l-0.299408,4.906937l3.393646,-3.314621l0.632172,4.776993l3.127472,-3.379623l0.898315,4.776962l2.694977,-3.867096l1.364136,4.484543l2.029541,-4.224564l2.195892,4.484512l1.3974,-4.452011l2.229126,4.159546l1.264313,-4.71199l2.861359,3.899597l0.598877,-4.647003l3.260559,3.542099l0.133057,-4.776978l3.460236,3.249634l-0.266174,-5.069443l3.626556,2.859695l-0.765228,-4.647003l3.393646,2.534714l-0.93158,-4.906967l3.925995,1.884811l-1.3974,-4.776993l4.025818,1.559845l-2.129395,-4.289536l4.225464,1.299835l-2.861298,-4.224548l4.425049,0.389984l-3.227325,-3.314651l3.95929,-0.194992l-3.327118,-2.924698l4.1922,-1.072372l-3.759674,-2.502228l3.992523,-1.007401l-3.659821,-1.85231l3.693146,-1.00737l-4.092377,-1.397369l3.626526,-2.209763l-4.458313,-0.357437l3.360382,-2.437256l-3.693085,0l3.626556,-2.469742l-4.657959,0.12999l2.994385,-3.119659l-4.325256,1.039886l2.927887,-3.217163l-4.225433,0.389938l1.929718,-3.737076l-3.992554,1.527344l1.530487,-4.257065l-3.4935,2.047302l0.998169,-4.354553l-3.460205,2.534744l0.23288,-4.744507l-2.944489,2.875946l-0.562195,-4.780975l-3.434845,2.619553l-0.70578,-4.274002l-2.634949,3.26297l-0.564636,-3.99826l-2.446686,3.538696l-1.270447,-4.044235l-1.458618,3.492737l-1.835052,-3.906357l-1.223389,3.906357l-2.446747,-3.446777l-0.329346,3.676559l-3.152527,-3.079132l-0.188202,3.860413l-2.917267,-2.803375l-0.431458,3.782303l0,0.000015z" id="path2902" stroke-width="0.305544px" stroke="#000000" fill="none"/>
    <path d="m293.550995,208.540192c0,1.202469 -0.998047,2.177277 -2.229156,2.177277c-1.23111,0 -2.229187,-0.974808 -2.229187,-2.177277c0,-1.202469 0.998077,-2.177261 2.229187,-2.177261c1.23111,0 2.229156,0.974792 2.229156,2.177261z" id="path2904" stroke-dashoffset="0" stroke-miterlimit="4" stroke-width="0.9" stroke="#000000" fill-rule="nonzero" fill="#000000"/>
    <path d="m290.342194,210.402466l0.707611,0.008591c0,0 -1.040649,9.759125 -4.141632,37.461212l-3.621918,-0.068665" id="path2906" stroke-width="0.34863px" stroke="#000000" fill-rule="evenodd" fill="#000000"/>
    <path d="m291.798126,210.369888l-0.724457,0.008575c0,0 1.496979,11.72554 4.611145,37.587708l3.337067,-0.198593" id="path2908" stroke-width="0.352735px" stroke="#000000" fill-rule="evenodd" fill="#000000"/>
   </g>
  </g>
  <g id="layer2" display="inline">
   <g id="g3522" display="inline">
    <g id="g3172">
     <g id="g3174">
      <path d="m233.963287,236.07077l0,-35.384277l0.685822,0l0,-8.700562l-1.318848,0l0,-1.407745l-0.606689,0l-1.79364,-2.967163l0,-2.707245l-1.937103,-6.125153l-0.012939,-1.136749l0,1.136566l-2.101959,6.125153l0,2.707245l-1.793671,2.967163l-0.606659,0l0,1.407761l-1.318848,0l0,8.700546l0.685822,0l0,35.389709l10.119141,-0.005142l-0.000427,-0.000107z" id="path3176" stroke-miterlimit="4" stroke-width="0.123348" stroke="#000000" fill-rule="evenodd" fill="#0f0f0f"/>
      <path d="m231.721069,196.143112c0.000824,1.69429 -1.372437,3.068207 -3.066711,3.068207c-1.694305,0 -3.067566,-1.373917 -3.066742,-3.068207c-0.000824,-1.69429 1.372437,-3.068192 3.066742,-3.068192c1.694275,0 3.067535,1.373901 3.066711,3.068192z" id="path3178" fill-rule="nonzero" fill="#ffffff"/>
     </g>
     <path d="m212.795044,220.099869l16.561859,-0.048019l0,16.020905l-16.596222,0.048019l0.034363,-16.020905z" id="path3180" fill-rule="evenodd" fill="#0f0f0f"/>
    </g>
    <path d="m24.240677,189.214386l-2.34758,3.58432l-0.106911,-11.789856l-1.491905,-2.256073l-1.928589,2.183319l-0.02887,54.62587l19.32576,-6.9785l0,6.998718l0.028786,-54.391617l-1.595291,-2.650223l-1.878304,2.470123l0,11.836029l-2.264366,-3.571564l-2.08905,-0.005905l-0.049187,-3.370438l-1.842957,-2.961151l-1.816826,3.033112l0.004005,3.246033l-1.918762,-0.002197l0.000046,0z" id="path3182" fill-rule="evenodd" fill="#0f0f0f"/>
    <path d="m115.844604,229.574539l0,-15.563156l-1.922241,-5.382263l0,-4.35704c0,0 -3.243744,-7.931198 -3.371918,-13.441605c-0.054596,-0.200272 -0.069397,-0.206497 -0.119797,-0.007507c-0.128143,5.510391 -3.35788,13.447601 -3.35788,13.447601l0,4.357056l-1.922211,4.254181l0,16.691254" id="path3184" stroke-miterlimit="4" stroke-width="0.018123" stroke="#000000" fill-rule="evenodd" fill="#0e0e0e"/>
    <path d="m87.978378,247.860657l-11.094254,0l0,-35.223953l1.439621,-3.257797l1.126511,3.238495l0.014694,3.334198l6.071991,0l0,-3.620453l1.195358,-2.940063l1.23288,2.996307l0.013199,35.473267z" id="path3186" stroke-width="0.205844px" stroke="#000000" fill-rule="evenodd" fill="#000000"/>
    <path d="m144.072739,247.878845l-11.094269,0l0,-35.223938l1.439621,-3.257813l1.126495,3.238495l0.014709,3.334213l6.072006,0l0,-3.620453l1.195343,-2.940079l1.232895,2.996307l0.013199,35.473267z" id="path3188" stroke-width="0.205844px" stroke="#000000" fill-rule="evenodd" fill="#000000"/>
    <g id="g3190" display="inline">
     <path d="m27.787117,247.857727l-11.094246,0l0,-35.223953l1.439606,-3.257797l1.126503,3.238495l0.014687,3.334198l6.072006,0l0,-3.620453l1.195351,-2.940063l1.232887,2.996307l0.013222,35.473267l-0.000015,0z" id="path3192" stroke-width="1px" stroke="#000000" fill-rule="evenodd" fill="#000000"/>
     <path d="m9.616287,247.860657l-11.094254,0.017151l0,-35.241104l1.439606,-3.257797l1.126488,3.238495l0.014702,3.334229l6.071999,0l0,-3.620483l1.195343,-2.940063l1.232903,2.996307l0.013214,35.473267z" id="path3194" stroke-width="1px" stroke="#000000" fill-rule="evenodd" fill="#000000"/>
     <path d="m11.376129,221.952332l0.033508,0.262802c0.297623,0.184647 0.329666,0.643112 0.322716,0.64592l-0.009987,2.784485l-0.716248,0.004456l-0.009979,-2.789032c-0.006958,-0.002808 0.025093,-0.461273 0.322723,-0.645935l0.02021,-0.262787l0.037048,0.000076l0.000008,0.000015z" id="path3196" stroke-miterlimit="4" stroke-width="0.234494" stroke="#000000" fill-rule="evenodd" fill="#000000"/>
     <path d="m2.767891,225.765533l21.019676,0l-0.483124,22.006622l-20.698494,0.009003l0.161942,-22.015625l0,0z" id="path3198" stroke-width="1.860614px" stroke="#000000" fill-rule="evenodd" fill="#000000"/>
     <path d="m15.226883,221.952332l0.033501,0.262802c0.297615,0.184647 0.329666,0.643112 0.322716,0.64592l-0.009987,2.784485l-0.71624,0.004456l-0.009979,-2.789032c-0.006966,-0.002808 0.025093,-0.461273 0.322708,-0.645935l0.02021,-0.262787l0.037056,0.000076l0.000015,0.000015z" id="path3200" stroke-miterlimit="4" stroke-width="0.234494" stroke="#000000" fill-rule="evenodd" fill="#000000"/>
    </g>
    <g id="g3202" display="inline">
     <path d="m222.500305,247.866821l-11.094269,0l0,-35.223953l1.439636,-3.257797l1.126495,3.238495l0.014618,3.334198l6.071991,0l0,-3.620453l1.195343,-2.940063l1.23291,2.996307l0.013184,35.473267l0.000092,0z" id="path3204" stroke-width="1px" stroke="#000000" fill-rule="evenodd" fill="#000000"/>
     <path d="m204.329468,247.869751l-11.094269,0l0,-35.223938l1.439636,-3.257813l1.126465,3.23851l0.014618,3.334198l6.071991,0l0,-3.620438l1.195343,-2.940094l1.23291,2.996323l0.013184,35.473251l0.000122,0z" id="path3206" stroke-width="1px" stroke="#000000" fill-rule="evenodd" fill="#000000"/>
     <path d="m206.089294,221.961426l0.033539,0.262787c0.297607,0.184662 0.329651,0.643127 0.322693,0.645935l-0.010071,2.784485l-0.716217,0.004456l-0.009888,-2.789032c-0.007019,-0.002792 0.025085,-0.461273 0.322693,-0.645935l0.020172,-0.262787l0.037079,0.000092l0,0z" id="path3208" stroke-miterlimit="4" stroke-width="0.234494" stroke="#000000" fill-rule="evenodd" fill="#000000"/>
     <path d="m197.758392,225.772095l20.460724,0l-0.470245,22.011688l-20.148132,0.009003l0.157654,-22.020691l0,0z" id="path3210" stroke-width="1.835923px" stroke="#000000" fill-rule="evenodd" fill="#000000"/>
     <path d="m209.940063,221.961426l0.033508,0.262787c0.297607,0.184662 0.329651,0.643127 0.322723,0.645935l-0.009888,2.784485l-0.716248,0.004456l-0.010101,-2.789032c-0.006989,-0.002792 0.025116,-0.461273 0.322723,-0.645935l0.020203,-0.262787l0.037018,0.000092l0.000061,0z" id="path3212" stroke-miterlimit="4" stroke-width="0.234494" stroke="#000000" fill-rule="evenodd" fill="#000000"/>
    </g>
    <g id="g3214" display="inline">
     <path d="m31.01339,224.899841l0.033508,0.262802c0.297615,0.184647 0.329659,0.643127 0.322716,0.645935l-0.009987,2.784485l-0.716248,0.00444l-0.009979,-2.789032c-0.006973,-0.002777 0.025093,-0.461258 0.322723,-0.64592l0.02021,-0.262802l0.037048,0.000092l0.000008,0z" id="path3216" stroke-miterlimit="4" stroke-width="0.234494" stroke="#000000" fill-rule="evenodd" fill="#000000"/>
     <path d="m35.239433,224.899841l0.033508,0.262802c0.297615,0.184647 0.329666,0.643127 0.322716,0.645935l-0.009979,2.784485l-0.716255,0.00444l-0.009979,-2.789032c-0.00695,-0.002777 0.025093,-0.461258 0.322708,-0.64592l0.020218,-0.262802l0.037064,0.000092l0,0z" id="path3218" stroke-miterlimit="4" stroke-width="0.234494" stroke="#000000" fill-rule="evenodd" fill="#000000"/>
     <path d="m39.549667,224.899841l0.033516,0.262802c0.297607,0.184647 0.329659,0.643127 0.322708,0.645935l-0.009979,2.784485l-0.716255,0.00444l-0.009979,-2.789032c-0.006958,-0.002777 0.025101,-0.461258 0.322716,-0.64592l0.02021,-0.262802l0.037056,0.000092l0.000008,0z" id="path3220" stroke-miterlimit="4" stroke-width="0.234494" stroke="#000000" fill-rule="evenodd" fill="#000000"/>
     <path d="m43.775711,224.899841l0.033508,0.262802c0.297623,0.184647 0.329666,0.643127 0.322723,0.645935l-0.009995,2.784485l-0.716248,0.00444l-0.009979,-2.789032c-0.006958,-0.002777 0.025101,-0.461258 0.322708,-0.64592l0.020218,-0.262802l0.037064,0.000092l0,0z" id="path3222" stroke-miterlimit="4" stroke-width="0.234494" stroke="#000000" fill-rule="evenodd" fill="#000000"/>
     <path d="m48.057343,224.973114l0.033508,0.262787c0.297623,0.184662 0.329666,0.643143 0.322708,0.645935l-0.009979,2.784485l-0.716248,0.004456l-0.009979,-2.789032c-0.006958,-0.002792 0.025101,-0.461273 0.322708,-0.645935l0.020218,-0.262802l0.037064,0.000107z" id="path3224" stroke-miterlimit="4" stroke-width="0.234494" stroke="#000000" fill-rule="evenodd" fill="#000000"/>
     <path d="m52.283386,224.973114l0.033508,0.262787c0.297623,0.184662 0.329666,0.643143 0.322708,0.645935l-0.009979,2.784485l-0.716248,0.004456l-0.009979,-2.789032c-0.006958,-0.002792 0.025085,-0.461273 0.322708,-0.645935l0.020218,-0.262802l0.037048,0.000107l0.000015,0z" id="path3226" stroke-miterlimit="4" stroke-width="0.234494" stroke="#000000" fill-rule="evenodd" fill="#000000"/>
     <path d="m56.593613,224.973114l0.033508,0.262787c0.297623,0.184662 0.329681,0.643143 0.322723,0.645935l-0.009979,2.784485l-0.716248,0.004456l-0.009995,-2.789032c-0.006943,-0.002792 0.025101,-0.461273 0.322723,-0.645935l0.020218,-0.262802l0.037048,0.000107z" id="path3228" stroke-miterlimit="4" stroke-width="0.234494" stroke="#000000" fill-rule="evenodd" fill="#000000"/>
     <path d="m60.819672,224.973114l0.033493,0.262787c0.297623,0.184662 0.329666,0.643143 0.322723,0.645935l-0.009979,2.784485l-0.716248,0.004456l-0.009979,-2.789032c-0.006958,-0.002792 0.025101,-0.461273 0.322708,-0.645935l0.020218,-0.262802l0.037064,0.000107z" id="path3230" stroke-miterlimit="4" stroke-width="0.234494" stroke="#000000" fill-rule="evenodd" fill="#000000"/>
     <path d="m65.307953,224.827545l0.033508,0.262802c0.297607,0.184662 0.329666,0.643143 0.322708,0.64595l-0.009979,2.78447l-0.716248,0.00444l-0.009979,-2.789001c-0.006973,-0.002808 0.025085,-0.461304 0.322708,-0.645935l0.020218,-0.262817l0.037048,0.000092l0.000015,0z" id="path3232" stroke-miterlimit="4" stroke-width="0.234494" stroke="#000000" fill-rule="evenodd" fill="#000000"/>
     <path d="m69.618179,224.827545l0.033508,0.262802c0.297623,0.184662 0.329666,0.643143 0.322723,0.64595l-0.009979,2.78447l-0.716263,0.00444l-0.009979,-2.789001c-0.006958,-0.002808 0.025101,-0.461304 0.322708,-0.645935l0.020218,-0.262817l0.037064,0.000092l0,0z" id="path3234" stroke-miterlimit="4" stroke-width="0.234494" stroke="#000000" fill-rule="evenodd" fill="#000000"/>
     <path d="m73.844223,224.827545l0.033508,0.262802c0.297623,0.184662 0.329666,0.643143 0.322723,0.64595l-0.009995,2.78447l-0.716232,0.00444l-0.009995,-2.789001c-0.006958,-0.002808 0.025101,-0.461304 0.322723,-0.645935l0.020203,-0.262817l0.037064,0.000092l0,0z" id="path3236" stroke-miterlimit="4" stroke-width="0.234494" stroke="#000000" fill-rule="evenodd" fill="#000000"/>
     <path d="m19.831017,228.498657l65.041222,0l0,19.346558l-65.279716,0.016235l0.238495,-19.362793z" id="path3238" stroke-width="1.149798px" stroke="#000000" fill-rule="evenodd" fill="#000000"/>
    </g>
    <g id="g3240" display="inline">
     <path d="m146.966599,224.91803l0.033936,0.262802c0.301331,0.184662 0.333771,0.643143 0.326736,0.645935l-0.010101,2.7845l-0.725189,0.00444l-0.010117,-2.789017c-0.007034,-0.002808 0.025421,-0.461304 0.326752,-0.645935l0.020477,-0.262802l0.037521,0.000076l-0.000015,0z" id="path3242" stroke-miterlimit="4" stroke-width="0.235952" stroke="#000000" fill-rule="evenodd" fill="#000000"/>
     <path d="m151.245361,224.91803l0.033936,0.262802c0.301331,0.184662 0.333786,0.643143 0.326736,0.645935l-0.010101,2.7845l-0.725189,0.00444l-0.010101,-2.789017c-0.00705,-0.002808 0.025406,-0.461304 0.326736,-0.645935l0.020462,-0.262802l0.037521,0.000076z" id="path3244" stroke-miterlimit="4" stroke-width="0.235952" stroke="#000000" fill-rule="evenodd" fill="#000000"/>
     <path d="m155.609375,224.91803l0.03392,0.262802c0.301331,0.184662 0.333771,0.643143 0.326736,0.645935l-0.010101,2.7845l-0.725189,0.00444l-0.010101,-2.789017c-0.00705,-0.002808 0.025406,-0.461304 0.326736,-0.645935l0.020477,-0.262802l0.037521,0.000076l0,0z" id="path3246" stroke-miterlimit="4" stroke-width="0.235952" stroke="#000000" fill-rule="evenodd" fill="#000000"/>
     <path d="m159.888138,224.91803l0.03392,0.262802c0.301331,0.184662 0.333771,0.643143 0.326736,0.645935l-0.010117,2.7845l-0.725174,0.00444l-0.010101,-2.789017c-0.00705,-0.002808 0.025406,-0.461304 0.326736,-0.645935l0.020493,-0.262802l0.037506,0.000076l0,0z" id="path3248" stroke-miterlimit="4" stroke-width="0.235952" stroke="#000000" fill-rule="evenodd" fill="#000000"/>
     <path d="m164.22316,224.991302l0.033936,0.262787c0.301331,0.184662 0.333771,0.643143 0.326736,0.64595l-0.010117,2.78447l-0.725174,0.004456l-0.010117,-2.789017c-0.007034,-0.002808 0.025421,-0.461288 0.326752,-0.645935l0.020477,-0.262802l0.037521,0.000092l-0.000015,0z" id="path3250" stroke-miterlimit="4" stroke-width="0.235952" stroke="#000000" fill-rule="evenodd" fill="#000000"/>
     <path d="m168.501923,224.991302l0.033936,0.262787c0.301331,0.184662 0.333771,0.643143 0.326736,0.64595l-0.010117,2.78447l-0.725174,0.004456l-0.010117,-2.789017c-0.007034,-0.002808 0.025421,-0.461288 0.326752,-0.645935l0.020477,-0.262802l0.037521,0.000092l-0.000015,0z" id="path3252" stroke-miterlimit="4" stroke-width="0.235952" stroke="#000000" fill-rule="evenodd" fill="#000000"/>
     <path d="m172.865936,224.991302l0.033905,0.262787c0.301331,0.184662 0.333801,0.643143 0.326752,0.64595l-0.010101,2.78447l-0.725189,0.004456l-0.010101,-2.789017c-0.00705,-0.002808 0.025391,-0.461288 0.326721,-0.645935l0.020508,-0.262802l0.037506,0.000092l0,0z" id="path3254" stroke-miterlimit="4" stroke-width="0.235952" stroke="#000000" fill-rule="evenodd" fill="#000000"/>
     <path d="m177.144684,224.991302l0.033936,0.262787c0.301331,0.184662 0.333771,0.643143 0.326752,0.64595l-0.010132,2.78447l-0.725159,0.004456l-0.010101,-2.789017c-0.00705,-0.002808 0.025391,-0.461288 0.326721,-0.645935l0.020477,-0.262802l0.037537,0.000092l-0.000031,0z" id="path3256" stroke-miterlimit="4" stroke-width="0.235952" stroke="#000000" fill-rule="evenodd" fill="#000000"/>
     <path d="m181.688965,224.845764l0.033905,0.262787c0.301331,0.184647 0.333771,0.643127 0.326752,0.645935l-0.010101,2.784485l-0.725189,0.00444l-0.010101,-2.789017c-0.00705,-0.002808 0.025421,-0.461273 0.326752,-0.645935l0.020477,-0.262802l0.037506,0.000092l0,0.000015z" id="path3258" stroke-miterlimit="4" stroke-width="0.235952" stroke="#000000" fill-rule="evenodd" fill="#000000"/>
     <path d="m186.052948,224.845764l0.033936,0.262787c0.301331,0.184647 0.333771,0.643127 0.326721,0.645935l-0.010101,2.784485l-0.725159,0.00444l-0.010132,-2.789017c-0.007019,-0.002808 0.025421,-0.461273 0.326752,-0.645935l0.020477,-0.262802l0.037506,0.000092l0,0.000015z" id="path3260" stroke-miterlimit="4" stroke-width="0.235952" stroke="#000000" fill-rule="evenodd" fill="#000000"/>
     <path d="m190.331726,224.845764l0.033905,0.262787c0.301331,0.184647 0.333801,0.643127 0.326721,0.645935l-0.010071,2.784485l-0.725159,0.00444l-0.010101,-2.789017c-0.006989,-0.002808 0.025421,-0.461273 0.326752,-0.645935l0.020386,-0.262802l0.037537,0.000092l0.000031,0.000015z" id="path3262" stroke-miterlimit="4" stroke-width="0.235952" stroke="#000000" fill-rule="evenodd" fill="#000000"/>
     <path d="m136.608994,228.515198l63.916946,0l0,19.349884l-64.151321,0l0.234375,-19.349884z" id="path3264" stroke-width="1.139915px" stroke="#000000" fill-rule="evenodd" fill="#000000"/>
    </g>
    <g id="g3266" display="inline">
     <path d="m90.605225,222.311737l0.033508,0.262787c0.297623,0.184662 0.329666,0.643127 0.322723,0.645935l-0.009979,2.784485l-0.716263,0.004425l-0.009979,-2.789001c-0.006958,-0.002808 0.025116,-0.461273 0.322723,-0.64595l0.020203,-0.262787l0.037064,0.000107z" id="path3268" stroke-miterlimit="4" stroke-width="0.234494" stroke="#000000" fill-rule="evenodd" fill="#000000"/>
     <path d="m95.030884,222.299561l0.033493,0.262787c0.297623,0.184662 0.329666,0.643127 0.322723,0.645935l-0.009979,2.784485l-0.716263,0.00444l-0.009964,-2.789017c-0.006973,-0.002808 0.025101,-0.461273 0.322708,-0.645935l0.020218,-0.262787l0.037064,0.000092z" id="path3271" stroke-miterlimit="4" stroke-width="0.234494" stroke="#000000" fill-rule="evenodd" fill="#000000"/>
     <path d="m99.353607,222.299561l0.033508,0.262787c0.297607,0.184662 0.329651,0.643127 0.322708,0.645935l-0.009979,2.784485l-0.716263,0.00444l-0.009964,-2.789017c-0.006973,-0.002808 0.025101,-0.461273 0.322708,-0.645935l0.020218,-0.262787l0.037064,0.000092z" id="path3273" stroke-miterlimit="4" stroke-width="0.234494" stroke="#000000" fill-rule="evenodd" fill="#000000"/>
     <path d="m103.779251,222.299561l0.033508,0.262787c0.297623,0.184662 0.329651,0.643127 0.322708,0.645935l-0.009979,2.784485l-0.716263,0.00444l-0.009964,-2.789017c-0.006958,-0.002808 0.025101,-0.461273 0.322708,-0.645935l0.020218,-0.262787l0.037064,0.000092z" id="path3275" stroke-miterlimit="4" stroke-width="0.234494" stroke="#000000" fill-rule="evenodd" fill="#000000"/>
     <path d="m108.128922,222.299561l0.033508,0.262787c0.297623,0.184662 0.329666,0.643127 0.322723,0.645935l-0.009995,2.784485l-0.716248,0.00444l-0.009979,-2.789017c-0.006958,-0.002808 0.025101,-0.461273 0.322708,-0.645935l0.020218,-0.262787l0.037064,0.000092z" id="path3277" stroke-miterlimit="4" stroke-width="0.234494" stroke="#000000" fill-rule="evenodd" fill="#000000"/>
     <path d="m112.477371,222.299561l0.033508,0.262787c0.297623,0.184662 0.329681,0.643127 0.322723,0.645935l-0.009979,2.784485l-0.716248,0.00444l-0.009995,-2.789017c-0.006958,-0.002808 0.025101,-0.461273 0.322708,-0.645935l0.020218,-0.262787l0.037064,0.000092z" id="path3279" stroke-miterlimit="4" stroke-width="0.234494" stroke="#000000" fill-rule="evenodd" fill="#000000"/>
     <path d="m116.7229,222.299561l0.033508,0.262787c0.297623,0.184662 0.329681,0.643127 0.322723,0.645935l-0.009979,2.784485l-0.716248,0.00444l-0.009995,-2.789017c-0.006958,-0.002808 0.025116,-0.461273 0.322723,-0.645935l0.020203,-0.262787l0.037064,0.000092z" id="path3281" stroke-miterlimit="4" stroke-width="0.234494" stroke="#000000" fill-rule="evenodd" fill="#000000"/>
     <path d="m121.097092,222.299561l0.033508,0.262787c0.297623,0.184662 0.329666,0.643127 0.322723,0.645935l-0.009995,2.784485l-0.716232,0.00444l-0.009995,-2.789017c-0.006958,-0.002808 0.025101,-0.461273 0.322708,-0.645935l0.020218,-0.262787l0.037064,0.000092z" id="path3283" stroke-miterlimit="4" stroke-width="0.234494" stroke="#000000" fill-rule="evenodd" fill="#000000"/>
     <path d="m125.495789,222.299561l0.033508,0.262787c0.297623,0.184662 0.329666,0.643127 0.322708,0.645935l-0.009979,2.784485l-0.716248,0.00444l-0.009979,-2.789017c-0.006958,-0.002808 0.025101,-0.461273 0.322708,-0.645935l0.020218,-0.262787l0.037064,0.000092z" id="path3285" stroke-miterlimit="4" stroke-width="0.234494" stroke="#000000" fill-rule="evenodd" fill="#000000"/>
     <path d="m129.921432,222.299561l0.033508,0.262787c0.297623,0.184662 0.329666,0.643127 0.322708,0.645935l-0.009964,2.784485l-0.716263,0.00444l-0.009979,-2.789017c-0.006958,-0.002808 0.025101,-0.461273 0.322708,-0.645935l0.020218,-0.262787l0.037064,0.000092z" id="path3287" stroke-miterlimit="4" stroke-width="0.234494" stroke="#000000" fill-rule="evenodd" fill="#000000"/>
     <path d="m80.328079,226.03743l60.43219,0l0,21.815964l-60.700119,0l0.267929,-21.815964z" id="path3289" stroke-width="1.156204px" stroke="#000000" fill-rule="evenodd" fill="#000000"/>
    </g>
   </g>
  </g>
  <rect id="svg_1" height="30" width="998" y="248.566681" x="-0.099976" stroke-width="5" stroke="#000000" fill="#000000"/>
  <rect id="svg_2" height="0" width="2" y="240.566681" x="156.900024" stroke-width="5" stroke="#000000" fill="#000000"/>
  <rect id="svg_3" height="0" width="38" y="220.566681" x="280.900024" stroke-width="5" stroke="#000000" fill="#000000"/>
  <rect id="svg_4" height="1" width="0" y="441.566681" x="176.900024" stroke-width="5" stroke="#000000" fill="#000000"/>
  <rect id="svg_5" height="18" width="19" y="237.566681" x="213.900024" stroke-width="5" stroke="#000000" fill="#000000"/>
  <rect id="svg_7" height="0" width="1" y="242.566681" x="227.900024" stroke-width="5" stroke="#000000" fill="#000000"/>
 </g>
</svg>